<?xml version="1.0"?>
<!DOCTYPE svg PUBLIC "-//W3C//DTD SVG 1.1//EN" "http://www.w3.org/Graphics/SVG/1.1/DTD/svg11.dtd">
<svg width="30.6mm" height="30.6mm" viewBox="0 0 30.6 30.6" xmlns="http://www.w3.org/2000/svg" version="1.1">
<g id="Sketch" transform="translate(15.300000,15.300000) scale(1,-1)">
<circle cx="0.0" cy="0.0" r="15.0" stroke="#000000" stroke-width="0.35 px" style="stroke-width:0.35;stroke-miterlimit:4;stroke-dasharray:none;stroke-linecap:square;fill:none"/>
<circle cx="0.0" cy="0.0" r="3.0" stroke="#000000" stroke-width="0.35 px" style="stroke-width:0.35;stroke-miterlimit:4;stroke-dasharray:none;stroke-linecap:square;fill:none"/>
<path id="Sketch_w0002"  d="M -1.500000000000001 5.809475019311125 A 6 6 0 0 1 -5.78115 -1.6057L -10.367496997597595 -3.676276105627112 A 11 11 0 0 0 -2 10.8167L -1.5000000000000007 5.809475019311125 " stroke="#000000" stroke-width="0.35 px" style="stroke-width:0.35;stroke-miterlimit:4;stroke-dasharray:none;stroke-linecap:square;fill:none;fill-opacity:1;fill-rule: evenodd"/>
<path id="Sketch_w0003"  d="M 5.781152949374646 -1.605699403979135 A 6 6 0 0 1 1.5 5.80948L 2.0 10.816653826391967 A 11 11 0 0 0 10.3675 -3.67628L 5.7811529493748175 -1.605699403979179 " stroke="#000000" stroke-width="0.35 px" style="stroke-width:0.35;stroke-miterlimit:4;stroke-dasharray:none;stroke-linecap:square;fill:none;fill-opacity:1;fill-rule: evenodd"/>
<path id="Sketch_w0004"  d="M -4.281152949374526 -4.203775615332223 A 6 6 0 0 1 4.28115 -4.20378L 8.367496997597641 -7.140377720764883 A 11 11 0 0 0 -8.3675 -7.14038L -4.281152949374525 -4.203775615332223 " stroke="#000000" stroke-width="0.35 px" style="stroke-width:0.35;stroke-miterlimit:4;stroke-dasharray:none;stroke-linecap:square;fill:none;fill-opacity:1;fill-rule: evenodd"/>
<title>b'Sketch'</title>
</g>
</svg>