<?xml version="1.0"?>
<!DOCTYPE svg PUBLIC "-//W3C//DTD SVG 1.1//EN" "http://www.w3.org/Graphics/SVG/1.1/DTD/svg11.dtd">
<svg width="41.82mm" height="20.82mm" viewBox="0 0 41.82 20.82" xmlns="http://www.w3.org/2000/svg" version="1.1">
<g id="Sketch" transform="translate(31.410000,10.410000) scale(1,-1)">
<circle cx="0.0" cy="0.0" r="3.0" stroke="#000000" stroke-width="0.35 px" style="stroke-width:0.35;stroke-miterlimit:4;stroke-dasharray:none;stroke-linecap:square;fill:none"/>
<circle cx="-25.0" cy="0.0" r="3.0" stroke="#000000" stroke-width="0.35 px" style="stroke-width:0.35;stroke-miterlimit:4;stroke-dasharray:none;stroke-linecap:square;fill:none"/>
<path id="Sketch_w0002"  d="M -10.0 10.000000000000002 L -26.476923076671152 5.815384615448596 A 6 6 0 0 1 -26.4769 -5.81538L -10.0 -9.999999999999998 L -7.0 -10.0 L -7.0 -4.000000000000001 L -4.0 -4.000000000000001 L -4.0 -10.0 L 4.0 -10.0 L 4.0 -4.000000000000001 L 7.0 -4.000000000000001 L 7.0 -10.0 L 10.0 -9.999999999999998 L 10.0 10.000000000000002 L 7.0 10.000000000000002 L 7.0 4.000000000000001 L 4.0 4.000000000000001 L 4.0 10.000000000000002 L -4.0 10.000000000000002 L -4.0 4.000000000000001 L -7.0 4.000000000000001 L -7.0 10.000000000000002 L -10.0 10.000000000000002 " stroke="#000000" stroke-width="0.35 px" style="stroke-width:0.35;stroke-miterlimit:4;stroke-dasharray:none;stroke-linecap:square;fill:none;fill-opacity:1;fill-rule: evenodd"/>
<title>b'Sketch'</title>
</g>
</svg>