<?xml version="1.0"?>
<!DOCTYPE svg PUBLIC "-//W3C//DTD SVG 1.1//EN" "http://www.w3.org/Graphics/SVG/1.1/DTD/svg11.dtd">
<svg width="112.19999999999999mm" height="22.200000000000014mm" viewBox="0 0 112.19999999999999 22.200000000000014" xmlns="http://www.w3.org/2000/svg" version="1.1">
<g id="Sketch" transform="translate(1.100000,7.100000) scale(1,-1)">
<path id="Sketch_w0000"  d="M 15.0 -14.000000000000028 L 0.0 -14.000000000000028 L 0.0 -1.4e-14 L 15.000000000000014 -1.4e-14 L 15.000000000000014 5.999999999999986 L 20.000000000000014 5.999999999999986 L 20.000000000000014 -1.4e-14 L 55.00000000000001 -1.4e-14 L 55.00000000000001 5.999999999999986 L 60.00000000000001 5.999999999999986 L 60.00000000000001 -1.4e-14 L 95.00000000000001 -1.4e-14 L 95.00000000000001 5.999999999999986 L 100.0 5.999999999999986 L 100.0 -1.4e-14 L 110.0 -1.4e-14 L 110.0 -14.000000000000028 L 35.0 -14.000000000000028 L 35.0 -8.000000000000028 L 27.5 -8.000000000000483 L 27.5 -14.000000000000028 L 22.5 -14.000000000000028 L 22.5 -8.000000000000938 L 15.0 -8.000000000000028 L 15.0 -14.000000000000028 " stroke="#000000" stroke-width="0.35 px" style="stroke-width:0.35;stroke-miterlimit:4;stroke-dasharray:none;stroke-linecap:square;fill:none;fill-opacity:1;fill-rule: evenodd"/>
<title>b'Sketch'</title>
</g>
</svg>