<?xml version="1.0"?>
<!DOCTYPE svg PUBLIC "-//W3C//DTD SVG 1.1//EN" "http://www.w3.org/Graphics/SVG/1.1/DTD/svg11.dtd">
<svg width="73.4200221723371mm" height="73.31445669432915mm" viewBox="0 0 73.4200221723371 73.31445669432915" xmlns="http://www.w3.org/2000/svg" version="1.1">
<g id="Pocket" transform="translate(36.710011,36.593343) scale(1,-1)">
<path id="Pocket_f0000"  d="M 2.4118185803307624 35.316153401657736 A 0.6656 0.6656 0 0 0 3.12677 35.8735L 3.126767218791782 35.87353881773929 A 0.6656 0.6656 0 0 1 2.41182 35.3162L 2.4118185803307624 35.316153401657736 Z " stroke="#191919" stroke-width="0.35 px" style="stroke-width:0.35;stroke-miterlimit:4;stroke-dasharray:none;stroke-linecap:square;fill:#cccccc;fill-opacity:1.0;fill-rule: evenodd"/>
<path id="Pocket_f0001"  d="M 3.12676721879177 35.873538817739274 L 4.658085292784149 35.70699794092897 L 4.658085292784149 35.70699794092897 L 3.126767218791776 35.873538817739274 L 3.126767218791782 35.87353881773929 Z " stroke="#191919" stroke-width="0.35 px" style="stroke-width:0.35;stroke-miterlimit:4;stroke-dasharray:none;stroke-linecap:square;fill:#cccccc;fill-opacity:1.0;fill-rule: evenodd"/>
<path id="Pocket_f0002"  d="M 2.100106194690266 34.277934022488374 A 4.112 4.112 0 0 1 2.41182 35.3162L 2.411818580330762 35.316153401657736 A 4.112 4.112 0 0 0 2.10011 34.2779L 2.1001061946902655 34.277934022488374 Z " stroke="#191919" stroke-width="0.35 px" style="stroke-width:0.35;stroke-miterlimit:4;stroke-dasharray:none;stroke-linecap:square;fill:#cccccc;fill-opacity:1.0;fill-rule: evenodd"/>
<circle cx="0.0" cy="0.0" r="25.0" stroke="#191919" stroke-width="0.35 px" style="stroke-width:0.35;stroke-miterlimit:4;stroke-dasharray:none;stroke-linecap:square;fill:#cccccc"/>
<circle cx="0.0" cy="0.0" r="25.0" stroke="#191919" stroke-width="0.35 px" style="stroke-width:0.35;stroke-miterlimit:4;stroke-dasharray:none;stroke-linecap:square;fill:#cccccc"/>
<path id="Pocket_f0005"  d="M 4.658085292784155 35.706997940928964 Q 5.215943216939902 35.58058346761721 5.236497441119865 35.00895106259246 L 5.236497441119865 35.00895106259246 Q 5.215943216939902 35.58058346761722 4.658085292784155 35.706997940928964 L 4.658085292784149 35.70699794092897 Z " stroke="#191919" stroke-width="0.35 px" style="stroke-width:0.35;stroke-miterlimit:4;stroke-dasharray:none;stroke-linecap:square;fill:#cccccc;fill-opacity:1.0;fill-rule: evenodd"/>
<path id="Pocket_f0006"  d="M -2.1001061946902646 34.277934022488374 A 2.304 2.304 0 0 1 2.10011 34.2779L 2.100106194690265 34.277934022488374 A 2.304 2.304 0 0 0 -2.10011 34.2779L -2.100106194690265 34.277934022488374 Z " stroke="#191919" stroke-width="0.35 px" style="stroke-width:0.35;stroke-miterlimit:4;stroke-dasharray:none;stroke-linecap:square;fill:#cccccc;fill-opacity:1.0;fill-rule: evenodd"/>
<path id="Pocket_f0007"  d="M 5.236497441119865 35.00895106259246 L 5.317735687430155 33.92799572679873 L 5.317735687430155 33.927995726798734 L 5.236497441119865 35.00895106259246 L 5.236497441119865 35.00895106259246 Z " stroke="#191919" stroke-width="0.35 px" style="stroke-width:0.35;stroke-miterlimit:4;stroke-dasharray:none;stroke-linecap:square;fill:#cccccc;fill-opacity:1.0;fill-rule: evenodd"/>
<path id="Pocket_f0008"  d="M -2.411818580330762 35.316153401657736 A 4.112 4.112 0 0 1 -2.10011 34.2779L -2.100106194690265 34.277934022488374 A 4.112 4.112 0 0 0 -2.41182 35.3162L -2.411818580330762 35.316153401657736 Z " stroke="#191919" stroke-width="0.35 px" style="stroke-width:0.35;stroke-miterlimit:4;stroke-dasharray:none;stroke-linecap:square;fill:#cccccc;fill-opacity:1.0;fill-rule: evenodd"/>
<path id="Pocket_f0009"  d="M 5.317735687430158 33.92799572679872 C 5.453842054805347 33.103827858330476 6.0403166281445095 32.5117823920756 7.077159407447635 32.15185932803397 C 8.081770140803707 31.917092097135647 9.037693605124957 32.46029487541754 9.419749445247342 33.02507422047378 L 9.41974944524735 33.02507422047378 C 9.037693605124954 32.460294875417524 8.081770140803705 31.917092097135612 7.077159407447635 32.15185932803398 C 6.040316628144514 32.51178239207562 5.453842054805345 33.10382785833051 5.317735687430155 33.92799572679872 L 5.317735687430155 33.927995726798734 Z " stroke="#191919" stroke-width="0.35 px" style="stroke-width:0.35;stroke-miterlimit:4;stroke-dasharray:none;stroke-linecap:square;fill:#cccccc;fill-opacity:1.0;fill-rule: evenodd"/>
<path id="Pocket_f0010"  d="M -3.126767218791788 35.873538817739295 A 0.6656 0.6656 0 0 0 -2.41182 35.3162L -2.411818580330762 35.316153401657736 A 0.6656 0.6656 0 0 1 -3.12677 35.8735L -3.1267672187917883 35.8735388177393 Z " stroke="#191919" stroke-width="0.35 px" style="stroke-width:0.35;stroke-miterlimit:4;stroke-dasharray:none;stroke-linecap:square;fill:#cccccc;fill-opacity:1.0;fill-rule: evenodd"/>
<path id="Pocket_f0011"  d="M 9.41974944524735 33.02507422047378 L 9.947360645508954 33.97201165874681 L 9.947360645508954 33.97201165874681 L 9.419749445247351 33.02507422047378 L 9.41974944524735 33.02507422047378 Z " stroke="#191919" stroke-width="0.35 px" style="stroke-width:0.35;stroke-miterlimit:4;stroke-dasharray:none;stroke-linecap:square;fill:#cccccc;fill-opacity:1.0;fill-rule: evenodd"/>
<path id="Pocket_f0012"  d="M -4.658085292784182 35.70699794092898 A 36.0095 36.0095 0 0 0 -3.12677 35.8735L -3.126767218791788 35.8735388177393 A 36.0095 36.0095 0 0 1 -4.65809 35.707L -4.658085292784158 35.706997940928986 Z " stroke="#191919" stroke-width="0.35 px" style="stroke-width:0.35;stroke-miterlimit:4;stroke-dasharray:none;stroke-linecap:square;fill:#cccccc;fill-opacity:1.0;fill-rule: evenodd"/>
<path id="Pocket_f0013"  d="M 9.947360645508956 33.97201165874681 Q 10.206037371113672 34.482180683910485 10.765415570369179 34.362672890006834 L 10.765415570369179 34.362672890006834 Q 10.206037371113672 34.482180683910485 9.947360645508954 33.97201165874681 L 9.947360645508954 33.97201165874681 Z " stroke="#191919" stroke-width="0.35 px" style="stroke-width:0.35;stroke-miterlimit:4;stroke-dasharray:none;stroke-linecap:square;fill:#cccccc;fill-opacity:1.0;fill-rule: evenodd"/>
<path id="Pocket_f0014"  d="M -5.2364974411198775 35.00895106259248 Q -5.215943216939916 35.58058346761725 -4.658085292784158 35.706997940928986 L -4.658085292784158 35.706997940928986 Q -5.215943216939914 35.580583467617245 -5.236497441119877 35.00895106259248 L -5.2364974411198775 35.00895106259248 Z " stroke="#191919" stroke-width="0.35 px" style="stroke-width:0.35;stroke-miterlimit:4;stroke-dasharray:none;stroke-linecap:square;fill:#cccccc;fill-opacity:1.0;fill-rule: evenodd"/>
<path id="Pocket_f0015"  d="M 10.765415570369173 34.362672890006834 L 12.225130913159468 33.87083752587867 L 12.225130913159468 33.87083752587867 L 10.765415570369179 34.362672890006834 L 10.765415570369179 34.362672890006834 Z " stroke="#191919" stroke-width="0.35 px" style="stroke-width:0.35;stroke-miterlimit:4;stroke-dasharray:none;stroke-linecap:square;fill:#cccccc;fill-opacity:1.0;fill-rule: evenodd"/>
<path id="Pocket_f0016"  d="M -5.317735687430162 33.92799572679875 L -5.236497441119877 35.00895106259248 L -5.236497441119877 35.00895106259248 L -5.317735687430162 33.92799572679875 L -5.317735687430162 33.92799572679875 Z " stroke="#191919" stroke-width="0.35 px" style="stroke-width:0.35;stroke-miterlimit:4;stroke-dasharray:none;stroke-linecap:square;fill:#cccccc;fill-opacity:1.0;fill-rule: evenodd"/>
<path id="Pocket_f0017"  d="M 12.225130913159475 33.87083752587866 Q 12.742771054078863 33.62745558917217 12.63996066217263 33.06476908149484 L 12.63996066217263 33.06476908149484 Q 12.742771054078858 33.627455589172165 12.225130913159475 33.87083752587867 L 12.225130913159468 33.87083752587867 Z " stroke="#191919" stroke-width="0.35 px" style="stroke-width:0.35;stroke-miterlimit:4;stroke-dasharray:none;stroke-linecap:square;fill:#cccccc;fill-opacity:1.0;fill-rule: evenodd"/>
<path id="Pocket_f0018"  d="M -9.419749445247366 33.02507422047382 C -9.037693605124979 32.46029487541756 -8.081770140803721 31.91709209713563 -7.07715940744765 32.151859328034014 C -6.040316628144527 32.51178239207562 -5.4538420548053566 33.10382785833051 -5.317735687430164 33.92799572679874 L -5.317735687430162 33.92799572679875 C -5.4538420548053566 33.1038278583305 -6.040316628144518 32.511782392075595 -7.07715940744765 32.15185932803401 C -8.08177014080372 31.917092097135644 -9.037693605124984 32.460294875417596 -9.419749445247364 33.02507422047382 L -9.419749445247366 33.02507422047382 Z " stroke="#191919" stroke-width="0.35 px" style="stroke-width:0.35;stroke-miterlimit:4;stroke-dasharray:none;stroke-linecap:square;fill:#cccccc;fill-opacity:1.0;fill-rule: evenodd"/>
<path id="Pocket_f0019"  d="M 12.63996066217263 33.06476908149484 L 12.486926159045066 31.991622059182895 L 12.486926159045066 31.99162205918289 L 12.63996066217263 33.06476908149484 L 12.63996066217263 33.06476908149484 Z " stroke="#191919" stroke-width="0.35 px" style="stroke-width:0.35;stroke-miterlimit:4;stroke-dasharray:none;stroke-linecap:square;fill:#cccccc;fill-opacity:1.0;fill-rule: evenodd"/>
<path id="Pocket_f0020"  d="M -9.94736064550896 33.972011658746815 L -9.419749445247366 33.02507422047382 L -9.419749445247366 33.02507422047382 L -9.947360645508962 33.972011658746815 L -9.94736064550896 33.972011658746815 Z " stroke="#191919" stroke-width="0.35 px" style="stroke-width:0.35;stroke-miterlimit:4;stroke-dasharray:none;stroke-linecap:square;fill:#cccccc;fill-opacity:1.0;fill-rule: evenodd"/>
<path id="Pocket_f0021"  d="M 12.486926159045067 31.99162205918288 C 12.44267870569431 31.157463931770856 12.888169554912878 30.453185462308078 13.823398706700761 29.878786650794474 C 14.75405418440995 29.433546535701723 15.804401229722798 29.75855424695749 16.298935681044235 30.227998652643596 L 16.29893568104424 30.227998652643596 C 15.804401229722789 29.758554246957477 14.754054184409933 29.433546535701723 13.823398706700763 29.878786650794474 C 12.888169554912885 30.453185462308124 12.442678705694307 31.157463931770874 12.486926159045064 31.99162205918289 L 12.486926159045066 31.99162205918289 Z " stroke="#191919" stroke-width="0.35 px" style="stroke-width:0.35;stroke-miterlimit:4;stroke-dasharray:none;stroke-linecap:square;fill:#cccccc;fill-opacity:1.0;fill-rule: evenodd"/>
<path id="Pocket_f0022"  d="M -10.765415570369194 34.36267289000685 Q -10.206037371113691 34.4821806839105 -9.94736064550896 33.97201165874682 L -9.94736064550896 33.972011658746815 Q -10.206037371113691 34.4821806839105 -10.765415570369194 34.362672890006856 L -10.765415570369196 34.362672890006856 Z " stroke="#191919" stroke-width="0.35 px" style="stroke-width:0.35;stroke-miterlimit:4;stroke-dasharray:none;stroke-linecap:square;fill:#cccccc;fill-opacity:1.0;fill-rule: evenodd"/>
<path id="Pocket_f0023"  d="M 16.29893568104424 30.227998652643596 L 17.017775182600445 31.039376407851975 L 17.017775182600445 31.039376407851975 L 16.29893568104424 30.227998652643592 L 16.29893568104424 30.227998652643596 Z " stroke="#191919" stroke-width="0.35 px" style="stroke-width:0.35;stroke-miterlimit:4;stroke-dasharray:none;stroke-linecap:square;fill:#cccccc;fill-opacity:1.0;fill-rule: evenodd"/>
<path id="Pocket_f0024"  d="M -12.225130913159484 33.87083752587868 L -10.765415570369196 34.362672890006856 L -10.765415570369196 34.362672890006856 L -12.225130913159479 33.87083752587868 L -12.225130913159479 33.87083752587868 Z " stroke="#191919" stroke-width="0.35 px" style="stroke-width:0.35;stroke-miterlimit:4;stroke-dasharray:none;stroke-linecap:square;fill:#cccccc;fill-opacity:1.0;fill-rule: evenodd"/>
<path id="Pocket_f0025"  d="M 17.017775182600445 31.03937640785198 Q 17.380075450031256 31.482010115137797 17.90068505477616 31.24504656930553 L 17.90068505477616 31.24504656930553 Q 17.380075450031256 31.482010115137804 17.017775182600445 31.039376407851975 L 17.017775182600445 31.039376407851975 Z " stroke="#191919" stroke-width="0.35 px" style="stroke-width:0.35;stroke-miterlimit:4;stroke-dasharray:none;stroke-linecap:square;fill:#cccccc;fill-opacity:1.0;fill-rule: evenodd"/>
<path id="Pocket_f0026"  d="M -12.639960662172646 33.06476908149485 Q -12.742771054078881 33.627455589172214 -12.225130913159479 33.87083752587868 L -12.225130913159479 33.87083752587868 Q -12.742771054078883 33.627455589172214 -12.639960662172646 33.06476908149485 L -12.639960662172646 33.06476908149485 Z " stroke="#191919" stroke-width="0.35 px" style="stroke-width:0.35;stroke-miterlimit:4;stroke-dasharray:none;stroke-linecap:square;fill:#cccccc;fill-opacity:1.0;fill-rule: evenodd"/>
<path id="Pocket_f0027"  d="M 17.900685054776158 31.245046569305533 L 19.220542999292576 30.450914392850393 L 19.220542999292572 30.450914392850397 L 17.90068505477616 31.24504656930553 L 17.90068505477616 31.24504656930553 Z " stroke="#191919" stroke-width="0.35 px" style="stroke-width:0.35;stroke-miterlimit:4;stroke-dasharray:none;stroke-linecap:square;fill:#cccccc;fill-opacity:1.0;fill-rule: evenodd"/>
<path id="Pocket_f0028"  d="M -12.486926159045074 31.991622059182905 L -12.639960662172646 33.06476908149485 L -12.639960662172646 33.06476908149485 L -12.486926159045074 31.99162205918291 L -12.486926159045074 31.991622059182905 Z " stroke="#191919" stroke-width="0.35 px" style="stroke-width:0.35;stroke-miterlimit:4;stroke-dasharray:none;stroke-linecap:square;fill:#cccccc;fill-opacity:1.0;fill-rule: evenodd"/>
<path id="Pocket_f0029"  d="M 19.220542999292576 30.45091439285039 Q 19.673761079301904 30.101945261609956 19.452393370969475 29.57451524699791 L 19.452393370969475 29.574515246997905 Q 19.673761079301904 30.101945261609956 19.220542999292576 30.450914392850393 L 19.220542999292572 30.450914392850397 Z " stroke="#191919" stroke-width="0.35 px" style="stroke-width:0.35;stroke-miterlimit:4;stroke-dasharray:none;stroke-linecap:square;fill:#cccccc;fill-opacity:1.0;fill-rule: evenodd"/>
<path id="Pocket_f0030"  d="M -16.298935681044263 30.227998652643624 C -15.804401229722822 29.75855424695752 -14.754054184409954 29.433546535701737 -13.823398706700782 29.87878665079449 C -12.888169554912901 30.453185462308113 -12.442678705694323 31.157463931770888 -12.486926159045074 31.9916220591829 L -12.486926159045074 31.991622059182905 C -12.44267870569432 31.157463931770874 -12.888169554912887 30.4531854623081 -13.823398706700782 29.878786650794492 C -14.75405418440997 29.433546535701765 -15.80440122972282 29.75855424695752 -16.298935681044263 30.227998652643624 L -16.298935681044263 30.227998652643624 Z " stroke="#191919" stroke-width="0.35 px" style="stroke-width:0.35;stroke-miterlimit:4;stroke-dasharray:none;stroke-linecap:square;fill:#cccccc;fill-opacity:1.0;fill-rule: evenodd"/>
<path id="Pocket_f0031"  d="M 19.452393370969475 29.574515246997905 L 19.072241841684665 28.559355700213793 L 19.072241841684665 28.559355700213793 L 19.452393370969475 29.574515246997905 L 19.452393370969475 29.574515246997905 Z " stroke="#191919" stroke-width="0.35 px" style="stroke-width:0.35;stroke-miterlimit:4;stroke-dasharray:none;stroke-linecap:square;fill:#cccccc;fill-opacity:1.0;fill-rule: evenodd"/>
<path id="Pocket_f0032"  d="M -17.017775182600452 31.039376407851982 L -16.298935681044263 30.227998652643628 L -16.298935681044263 30.227998652643624 L -17.017775182600452 31.039376407851982 L -17.017775182600452 31.039376407851982 Z " stroke="#191919" stroke-width="0.35 px" style="stroke-width:0.35;stroke-miterlimit:4;stroke-dasharray:none;stroke-linecap:square;fill:#cccccc;fill-opacity:1.0;fill-rule: evenodd"/>
<path id="Pocket_f0033"  d="M 19.07224184168466 28.559355700213782 C 18.88912616627899 27.902536834015116 19.093969360535297 26.822306213388188 19.923271246032748 26.208615117650055 C 20.736455052306646 25.573721051295816 21.832112618149146 25.66533669616724 22.416001799361418 26.01749546382329 L 22.416001799361425 26.017495463823295 C 21.83211261814913 25.665336696167223 20.73645505230663 25.573721051295806 19.923271246032744 26.20861511765005 C 19.093969360535326 26.822306213388202 18.889126166278988 27.90253683401513 19.07224184168466 28.559355700213793 L 19.072241841684665 28.559355700213793 Z " stroke="#191919" stroke-width="0.35 px" style="stroke-width:0.35;stroke-miterlimit:4;stroke-dasharray:none;stroke-linecap:square;fill:#cccccc;fill-opacity:1.0;fill-rule: evenodd"/>
<path id="Pocket_f0034"  d="M -17.900685054776172 31.245046569305536 Q -17.380075450031274 31.482010115137815 -17.017775182600452 31.039376407851982 L -17.017775182600452 31.039376407851982 Q -17.380075450031274 31.482010115137815 -17.900685054776176 31.245046569305536 L -17.90068505477618 31.245046569305543 Z " stroke="#191919" stroke-width="0.35 px" style="stroke-width:0.35;stroke-miterlimit:4;stroke-dasharray:none;stroke-linecap:square;fill:#cccccc;fill-opacity:1.0;fill-rule: evenodd"/>
<path id="Pocket_f0035"  d="M 22.416001799361425 26.017495463823295 L 23.292457466052184 26.655374413915098 L 23.292457466052184 26.655374413915094 L 22.416001799361425 26.017495463823295 L 22.416001799361425 26.017495463823295 Z " stroke="#191919" stroke-width="0.35 px" style="stroke-width:0.35;stroke-miterlimit:4;stroke-dasharray:none;stroke-linecap:square;fill:#cccccc;fill-opacity:1.0;fill-rule: evenodd"/>
<path id="Pocket_f0036"  d="M -19.220542999292586 30.450914392850393 L -17.900685054776183 31.245046569305543 L -17.90068505477618 31.245046569305543 L -19.220542999292583 30.450914392850393 L -19.220542999292583 30.450914392850397 Z " stroke="#191919" stroke-width="0.35 px" style="stroke-width:0.35;stroke-miterlimit:4;stroke-dasharray:none;stroke-linecap:square;fill:#cccccc;fill-opacity:1.0;fill-rule: evenodd"/>
<path id="Pocket_f0037"  d="M 23.292457466052184 26.655374413915098 Q 23.741440517471847 27.009775743122418 24.198938401204295 26.666436597398576 L 24.198938401204295 26.666436597398572 Q 23.741440517471844 27.009775743122418 23.292457466052184 26.655374413915094 L 23.292457466052184 26.655374413915094 Z " stroke="#191919" stroke-width="0.35 px" style="stroke-width:0.35;stroke-miterlimit:4;stroke-dasharray:none;stroke-linecap:square;fill:#cccccc;fill-opacity:1.0;fill-rule: evenodd"/>
<path id="Pocket_f0038"  d="M -19.45239337096949 29.574515246997915 Q -19.673761079301936 30.10194526160999 -19.220542999292583 30.450914392850397 L -19.220542999292583 30.450914392850397 Q -19.673761079301936 30.10194526160999 -19.45239337096949 29.574515246997915 L -19.45239337096949 29.574515246997915 Z " stroke="#191919" stroke-width="0.35 px" style="stroke-width:0.35;stroke-miterlimit:4;stroke-dasharray:none;stroke-linecap:square;fill:#cccccc;fill-opacity:1.0;fill-rule: evenodd"/>
<path id="Pocket_f0039"  d="M 24.19893840120429 26.666436597398576 L 25.317223856877987 25.60714034657299 L 25.317223856877987 25.60714034657299 L 24.198938401204295 26.666436597398572 L 24.198938401204295 26.666436597398572 Z " stroke="#191919" stroke-width="0.35 px" style="stroke-width:0.35;stroke-miterlimit:4;stroke-dasharray:none;stroke-linecap:square;fill:#cccccc;fill-opacity:1.0;fill-rule: evenodd"/>
<path id="Pocket_f0040"  d="M -19.072241841684676 28.559355700213803 L -19.45239337096949 29.574515246997915 L -19.45239337096949 29.574515246997915 L -19.072241841684672 28.559355700213803 L -19.072241841684676 28.559355700213803 Z " stroke="#191919" stroke-width="0.35 px" style="stroke-width:0.35;stroke-miterlimit:4;stroke-dasharray:none;stroke-linecap:square;fill:#cccccc;fill-opacity:1.0;fill-rule: evenodd"/>
<path id="Pocket_f0041"  d="M 25.31722385687799 25.60714034657298 Q 25.684827902271756 25.168901429524084 25.355253785522198 24.701389949264208 L 25.355253785522198 24.701389949264208 Q 25.684827902271756 25.168901429524087 25.31722385687799 25.607140346572983 L 25.317223856877987 25.60714034657299 Z " stroke="#191919" stroke-width="0.35 px" style="stroke-width:0.35;stroke-miterlimit:4;stroke-dasharray:none;stroke-linecap:square;fill:#cccccc;fill-opacity:1.0;fill-rule: evenodd"/>
<path id="Pocket_f0042"  d="M -22.416001799361446 26.017495463823316 C -21.832112618149168 25.665336696167245 -20.736455052306653 25.573721051295834 -19.92327124603277 26.208615117650066 C -19.093969360535326 26.822306213388224 -18.889126166279006 27.90253683401514 -19.07224184168468 28.559355700213796 L -19.072241841684676 28.559355700213803 C -18.889126166279 27.902536834015127 -19.09396936053532 26.8223062133882 -19.92327124603277 26.208615117650062 C -20.73645505230666 25.573721051295852 -21.832112618149182 25.66533669616722 -22.41600179936145 26.017495463823316 L -22.41600179936145 26.017495463823316 Z " stroke="#191919" stroke-width="0.35 px" style="stroke-width:0.35;stroke-miterlimit:4;stroke-dasharray:none;stroke-linecap:square;fill:#cccccc;fill-opacity:1.0;fill-rule: evenodd"/>
<path id="Pocket_f0043"  d="M 25.355253785522198 24.701389949264208 L 24.765760693081425 23.79168561014676 L 24.765760693081425 23.79168561014676 L 25.3552537855222 24.701389949264208 L 25.355253785522198 24.701389949264208 Z " stroke="#191919" stroke-width="0.35 px" style="stroke-width:0.35;stroke-miterlimit:4;stroke-dasharray:none;stroke-linecap:square;fill:#cccccc;fill-opacity:1.0;fill-rule: evenodd"/>
<path id="Pocket_f0044"  d="M -23.29245746605219 26.655374413915098 L -22.416001799361446 26.017495463823316 L -22.41600179936145 26.017495463823316 L -23.29245746605219 26.655374413915098 L -23.29245746605219 26.655374413915098 Z " stroke="#191919" stroke-width="0.35 px" style="stroke-width:0.35;stroke-miterlimit:4;stroke-dasharray:none;stroke-linecap:square;fill:#cccccc;fill-opacity:1.0;fill-rule: evenodd"/>
<path id="Pocket_f0045"  d="M 24.76576069308142 23.791685610146754 C 24.44572951960188 23.189587261390436 24.413565941764293 22.09057660073521 25.091553765025825 21.312957870387876 C 25.749242328871937 20.5180967936808 26.838978685201244 20.372036526437157 27.48492058713707 20.590443103483928 L 27.484920587137072 20.59044310348393 C 26.838978685201237 20.372036526437135 25.749242328871922 20.51809679368078 25.091553765025832 21.312957870387876 C 24.41356594176432 22.09057660073523 24.445729519601887 23.18958726139045 24.765760693081422 23.79168561014676 L 24.765760693081425 23.79168561014676 Z " stroke="#191919" stroke-width="0.35 px" style="stroke-width:0.35;stroke-miterlimit:4;stroke-dasharray:none;stroke-linecap:square;fill:#cccccc;fill-opacity:1.0;fill-rule: evenodd"/>
<path id="Pocket_f0046"  d="M -24.19893840120431 26.666436597398576 Q -23.74144051747187 27.009775743122432 -23.29245746605219 26.655374413915098 L -23.29245746605219 26.655374413915098 Q -23.741440517471876 27.009775743122432 -24.19893840120431 26.666436597398576 L -24.198938401204316 26.666436597398583 Z " stroke="#191919" stroke-width="0.35 px" style="stroke-width:0.35;stroke-miterlimit:4;stroke-dasharray:none;stroke-linecap:square;fill:#cccccc;fill-opacity:1.0;fill-rule: evenodd"/>
<path id="Pocket_f0047"  d="M 27.484920587137072 20.59044310348393 L 28.478010326098435 21.024996737704395 L 28.478010326098435 21.024996737704395 L 27.484920587137076 20.59044310348393 L 27.484920587137072 20.59044310348393 Z " stroke="#191919" stroke-width="0.35 px" style="stroke-width:0.35;stroke-miterlimit:4;stroke-dasharray:none;stroke-linecap:square;fill:#cccccc;fill-opacity:1.0;fill-rule: evenodd"/>
<path id="Pocket_f0048"  d="M -25.317223856878 25.607140346572983 L -24.198938401204316 26.666436597398583 L -24.198938401204316 26.666436597398583 L -25.317223856878 25.607140346572987 L -25.317223856877998 25.607140346572987 Z " stroke="#191919" stroke-width="0.35 px" style="stroke-width:0.35;stroke-miterlimit:4;stroke-dasharray:none;stroke-linecap:square;fill:#cccccc;fill-opacity:1.0;fill-rule: evenodd"/>
<path id="Pocket_f0049"  d="M 28.478010326098435 21.024996737704395 Q 28.992682213031383 21.274594276568266 29.365676283180427 20.840933687812846 L 29.365676283180427 20.840933687812846 Q 28.992682213031383 21.274594276568273 28.478010326098435 21.024996737704395 L 28.478010326098435 21.024996737704395 Z " stroke="#191919" stroke-width="0.35 px" style="stroke-width:0.35;stroke-miterlimit:4;stroke-dasharray:none;stroke-linecap:square;fill:#cccccc;fill-opacity:1.0;fill-rule: evenodd"/>
<path id="Pocket_f0050"  d="M -25.355253785522212 24.701389949264218 Q -25.684827902271785 25.168901429524105 -25.317223856877998 25.607140346572987 L -25.317223856877998 25.607140346572987 Q -25.684827902271778 25.16890142952411 -25.355253785522212 24.701389949264218 L -25.355253785522212 24.701389949264218 Z " stroke="#191919" stroke-width="0.35 px" style="stroke-width:0.35;stroke-miterlimit:4;stroke-dasharray:none;stroke-linecap:square;fill:#cccccc;fill-opacity:1.0;fill-rule: evenodd"/>
<path id="Pocket_f0051"  d="M 29.365676283180424 20.84093368781285 L 30.230099464989117 19.56600487798219 L 30.230099464989117 19.56600487798219 L 29.365676283180427 20.840933687812846 L 29.365676283180427 20.840933687812846 Z " stroke="#191919" stroke-width="0.35 px" style="stroke-width:0.35;stroke-miterlimit:4;stroke-dasharray:none;stroke-linecap:square;fill:#cccccc;fill-opacity:1.0;fill-rule: evenodd"/>
<path id="Pocket_f0052"  d="M -24.765760693081436 23.79168561014677 L -25.355253785522212 24.701389949264218 L -25.355253785522212 24.701389949264218 L -24.765760693081436 23.79168561014677 L -24.765760693081436 23.79168561014677 Z " stroke="#191919" stroke-width="0.35 px" style="stroke-width:0.35;stroke-miterlimit:4;stroke-dasharray:none;stroke-linecap:square;fill:#cccccc;fill-opacity:1.0;fill-rule: evenodd"/>
<path id="Pocket_f0053"  d="M 30.230099464989117 19.56600487798218 Q 30.494900719167248 19.058987739818456 30.07253071340446 18.67325511112602 L 30.07253071340446 18.67325511112602 Q 30.494900719167237 19.058987739818456 30.230099464989117 19.566004877982184 L 30.230099464989117 19.56600487798219 Z " stroke="#191919" stroke-width="0.35 px" style="stroke-width:0.35;stroke-miterlimit:4;stroke-dasharray:none;stroke-linecap:square;fill:#cccccc;fill-opacity:1.0;fill-rule: evenodd"/>
<path id="Pocket_f0054"  d="M -27.4849205871371 20.590443103483945 C -26.838978685201248 20.37203652643716 -25.74924232887196 20.518096793680776 -25.091553765025843 21.312957870387887 C -24.413565941764332 22.09057660073522 -24.445729519601898 23.189587261390454 -24.765760693081436 23.791685610146764 L -24.765760693081436 23.79168561014677 C -24.445729519601866 23.189587261390447 -24.413565941764332 22.09057660073522 -25.091553765025846 21.312957870387883 C -25.749242328871958 20.518096793680797 -26.838978685201273 20.372036526437157 -27.484920587137097 20.590443103483942 L -27.4849205871371 20.590443103483945 Z " stroke="#191919" stroke-width="0.35 px" style="stroke-width:0.35;stroke-miterlimit:4;stroke-dasharray:none;stroke-linecap:square;fill:#cccccc;fill-opacity:1.0;fill-rule: evenodd"/>
<path id="Pocket_f0055"  d="M 30.07253071340446 18.67325511112602 L 29.30126009963574 17.911542743508612 L 29.301260099635737 17.911542743508612 L 30.07253071340446 18.673255111126018 L 30.07253071340446 18.67325511112602 Z " stroke="#191919" stroke-width="0.35 px" style="stroke-width:0.35;stroke-miterlimit:4;stroke-dasharray:none;stroke-linecap:square;fill:#cccccc;fill-opacity:1.0;fill-rule: evenodd"/>
<path id="Pocket_f0056"  d="M -28.478010326098442 21.02499673770439 L -27.484920587137097 20.590443103483942 L -27.4849205871371 20.590443103483945 L -28.478010326098442 21.02499673770439 L -28.478010326098442 21.02499673770439 Z " stroke="#191919" stroke-width="0.35 px" style="stroke-width:0.35;stroke-miterlimit:4;stroke-dasharray:none;stroke-linecap:square;fill:#cccccc;fill-opacity:1.0;fill-rule: evenodd"/>
<path id="Pocket_f0057"  d="M 29.301260099635734 17.9115427435086 C 28.85927773006511 17.39231836179823 28.59161131328608 16.32591617814433 29.086583117225334 15.420730400757696 C 29.710771808953115 14.51797016783797 30.43813578172911 14.111261537005225 31.268675035553393 14.200604508259508 L 31.268675035553393 14.200604508259506 C 30.43813578172909 14.111261537005204 29.710771808953098 14.517970167837959 29.086583117225338 15.420730400757696 C 28.5916113132861 16.325916178144336 28.85927773006512 17.392318361798242 29.301260099635734 17.911542743508612 L 29.301260099635737 17.911542743508612 Z " stroke="#191919" stroke-width="0.35 px" style="stroke-width:0.35;stroke-miterlimit:4;stroke-dasharray:none;stroke-linecap:square;fill:#cccccc;fill-opacity:1.0;fill-rule: evenodd"/>
<path id="Pocket_f0058"  d="M -29.36567628318044 20.840933687812843 Q -28.992682213031408 21.274594276568273 -28.478010326098442 21.02499673770439 L -28.478010326098442 21.02499673770439 Q -28.992682213031404 21.274594276568273 -29.36567628318044 20.840933687812843 L -29.365676283180452 20.84093368781285 Z " stroke="#191919" stroke-width="0.35 px" style="stroke-width:0.35;stroke-miterlimit:4;stroke-dasharray:none;stroke-linecap:square;fill:#cccccc;fill-opacity:1.0;fill-rule: evenodd"/>
<path id="Pocket_f0059"  d="M 31.268675035553393 14.200604508259506 L 32.3319630743315 14.411513581644154 L 32.3319630743315 14.411513581644156 L 31.268675035553393 14.200604508259506 L 31.268675035553393 14.200604508259506 Z " stroke="#191919" stroke-width="0.35 px" style="stroke-width:0.35;stroke-miterlimit:4;stroke-dasharray:none;stroke-linecap:square;fill:#cccccc;fill-opacity:1.0;fill-rule: evenodd"/>
<path id="Pocket_f0060"  d="M -30.230099464989127 19.566004877982184 L -29.36567628318045 20.84093368781285 L -29.365676283180452 20.84093368781285 L -30.230099464989124 19.566004877982188 L -30.230099464989124 19.566004877982188 Z " stroke="#191919" stroke-width="0.35 px" style="stroke-width:0.35;stroke-miterlimit:4;stroke-dasharray:none;stroke-linecap:square;fill:#cccccc;fill-opacity:1.0;fill-rule: evenodd"/>
<path id="Pocket_f0061"  d="M 32.3319630743315 14.411513581644158 Q 32.88825831136147 14.54463642665505 33.15930777976007 14.040931882019123 L 33.15930777976007 14.040931882019123 Q 32.88825831136147 14.544636426655053 32.3319630743315 14.411513581644158 L 32.3319630743315 14.411513581644156 Z " stroke="#191919" stroke-width="0.35 px" style="stroke-width:0.35;stroke-miterlimit:4;stroke-dasharray:none;stroke-linecap:square;fill:#cccccc;fill-opacity:1.0;fill-rule: evenodd"/>
<path id="Pocket_f0062"  d="M -30.072530713404475 18.673255111126025 Q -30.494900719167276 19.058987739818466 -30.230099464989124 19.566004877982188 L -30.230099464989124 19.566004877982188 Q -30.494900719167276 19.058987739818466 -30.072530713404475 18.673255111126025 L -30.072530713404475 18.673255111126025 Z " stroke="#191919" stroke-width="0.35 px" style="stroke-width:0.35;stroke-miterlimit:4;stroke-dasharray:none;stroke-linecap:square;fill:#cccccc;fill-opacity:1.0;fill-rule: evenodd"/>
<path id="Pocket_f0063"  d="M 33.15930777976007 14.040931882019128 L 33.72944922045974 12.60998476734948 L 33.72944922045974 12.609984767349482 L 33.15930777976007 14.040931882019123 L 33.15930777976007 14.040931882019123 Z " stroke="#191919" stroke-width="0.35 px" style="stroke-width:0.35;stroke-miterlimit:4;stroke-dasharray:none;stroke-linecap:square;fill:#cccccc;fill-opacity:1.0;fill-rule: evenodd"/>
<path id="Pocket_f0064"  d="M -29.30126009963575 17.91154274350862 L -30.072530713404475 18.673255111126025 L -30.072530713404475 18.673255111126025 L -29.301260099635755 17.91154274350862 L -29.30126009963575 17.91154274350862 Z " stroke="#191919" stroke-width="0.35 px" style="stroke-width:0.35;stroke-miterlimit:4;stroke-dasharray:none;stroke-linecap:square;fill:#cccccc;fill-opacity:1.0;fill-rule: evenodd"/>
<path id="Pocket_f0065"  d="M 33.72944922045974 12.60998476734947 Q 33.879065871082325 12.057896965942371 33.38364952834523 11.771979617824012 L 33.38364952834523 11.771979617824012 Q 33.879065871082325 12.057896965942374 33.72944922045974 12.60998476734947 L 33.72944922045974 12.609984767349482 Z " stroke="#191919" stroke-width="0.35 px" style="stroke-width:0.35;stroke-miterlimit:4;stroke-dasharray:none;stroke-linecap:square;fill:#cccccc;fill-opacity:1.0;fill-rule: evenodd"/>
<path id="Pocket_f0066"  d="M -31.268675035553425 14.200604508259513 C -30.438135781729127 14.111261537005214 -29.71077180895312 14.517970167837955 -29.086583117225363 15.420730400757693 C -28.591611313286137 16.325916178144332 -28.859277730065152 17.392318361798253 -29.30126009963575 17.911542743508612 L -29.30126009963575 17.91154274350862 C -28.85927773006512 17.392318361798242 -28.5916113132861 16.32591617814432 -29.08658311722536 15.420730400757693 C -29.710771808953147 14.517970167837968 -30.438135781729137 14.111261537005223 -31.268675035553425 14.200604508259511 L -31.268675035553425 14.200604508259513 Z " stroke="#191919" stroke-width="0.35 px" style="stroke-width:0.35;stroke-miterlimit:4;stroke-dasharray:none;stroke-linecap:square;fill:#cccccc;fill-opacity:1.0;fill-rule: evenodd"/>
<path id="Pocket_f0067"  d="M 33.38364952834523 11.771979617824012 L 32.46666514994267 11.193876045433942 L 32.46666514994266 11.193876045433942 L 33.38364952834523 11.771979617824012 L 33.38364952834523 11.771979617824012 Z " stroke="#191919" stroke-width="0.35 px" style="stroke-width:0.35;stroke-miterlimit:4;stroke-dasharray:none;stroke-linecap:square;fill:#cccccc;fill-opacity:1.0;fill-rule: evenodd"/>
<path id="Pocket_f0068"  d="M -32.331963074331505 14.41151358164415 L -31.26867503555342 14.200604508259513 L -31.268675035553425 14.200604508259513 L -32.331963074331505 14.41151358164415 L -32.331963074331505 14.41151358164415 Z " stroke="#191919" stroke-width="0.35 px" style="stroke-width:0.35;stroke-miterlimit:4;stroke-dasharray:none;stroke-linecap:square;fill:#cccccc;fill-opacity:1.0;fill-rule: evenodd"/>
<path id="Pocket_f0069"  d="M 32.466665149942656 11.193876045433935 C 31.923398188653948 10.781803985781846 31.43274471709223 9.797874060015989 31.721556170278635 8.807446716498937 C 32.13708491258602 7.791610398316439 32.76001318647426 7.238048635839179 33.590340991943464 7.146761429067193 L 33.59034099194347 7.146761429067189 C 32.76001318647426 7.2380486358391805 32.13708491258599 7.791610398316431 31.72155617027864 8.807446716498937 C 31.432744717092252 9.797874060016005 31.92339818865398 10.781803985781846 32.46666514994266 11.193876045433942 L 32.46666514994266 11.193876045433942 Z " stroke="#191919" stroke-width="0.35 px" style="stroke-width:0.35;stroke-miterlimit:4;stroke-dasharray:none;stroke-linecap:square;fill:#cccccc;fill-opacity:1.0;fill-rule: evenodd"/>
<path id="Pocket_f0070"  d="M -33.159307779760084 14.040931882019118 Q -32.88825831136148 14.544636426655043 -32.331963074331505 14.41151358164415 L -32.331963074331505 14.41151358164415 Q -32.88825831136149 14.544636426655046 -33.159307779760084 14.040931882019116 L -33.15930777976009 14.04093188201912 Z " stroke="#191919" stroke-width="0.35 px" style="stroke-width:0.35;stroke-miterlimit:4;stroke-dasharray:none;stroke-linecap:square;fill:#cccccc;fill-opacity:1.0;fill-rule: evenodd"/>
<path id="Pocket_f0071"  d="M 33.59034099194347 7.146761429067189 L 34.674109163604825 7.124164067753162 L 34.674109163604825 7.124164067753161 L 33.59034099194348 7.146761429067189 L 33.59034099194347 7.146761429067189 Z " stroke="#191919" stroke-width="0.35 px" style="stroke-width:0.35;stroke-miterlimit:4;stroke-dasharray:none;stroke-linecap:square;fill:#cccccc;fill-opacity:1.0;fill-rule: evenodd"/>
<path id="Pocket_f0072"  d="M -33.72944922045975 12.609984767349472 L -33.15930777976009 14.04093188201912 L -33.15930777976009 14.04093188201912 L -33.72944922045975 12.609984767349477 L -33.72944922045975 12.609984767349477 Z " stroke="#191919" stroke-width="0.35 px" style="stroke-width:0.35;stroke-miterlimit:4;stroke-dasharray:none;stroke-linecap:square;fill:#cccccc;fill-opacity:1.0;fill-rule: evenodd"/>
<path id="Pocket_f0073"  d="M 34.67410916360483 7.124164067753161 Q 35.24601600372606 7.1345875426337795 35.40244689848173 6.584391706797131 L 35.402446898481735 6.584391706797131 Q 35.246016003726055 7.1345875426337795 34.67410916360482 7.124164067753161 L 34.674109163604825 7.124164067753161 Z " stroke="#191919" stroke-width="0.35 px" style="stroke-width:0.35;stroke-miterlimit:4;stroke-dasharray:none;stroke-linecap:square;fill:#cccccc;fill-opacity:1.0;fill-rule: evenodd"/>
<path id="Pocket_f0074"  d="M -33.38364952834525 11.771979617824014 Q -33.879065871082375 12.057896965942382 -33.72944922045975 12.609984767349477 L -33.72944922045975 12.609984767349477 Q -33.879065871082375 12.057896965942378 -33.383649528345245 11.771979617824012 L -33.383649528345245 11.771979617824012 Z " stroke="#191919" stroke-width="0.35 px" style="stroke-width:0.35;stroke-miterlimit:4;stroke-dasharray:none;stroke-linecap:square;fill:#cccccc;fill-opacity:1.0;fill-rule: evenodd"/>
<path id="Pocket_f0075"  d="M 35.402446898481735 6.584391706797137 L 35.65164741797197 5.064335783986966 L 35.65164741797197 5.064335783986966 L 35.40244689848173 6.584391706797131 L 35.402446898481735 6.584391706797131 Z " stroke="#191919" stroke-width="0.35 px" style="stroke-width:0.35;stroke-miterlimit:4;stroke-dasharray:none;stroke-linecap:square;fill:#cccccc;fill-opacity:1.0;fill-rule: evenodd"/>
<path id="Pocket_f0076"  d="M -32.46666514994268 11.193876045433946 L -33.383649528345245 11.771979617824012 L -33.383649528345245 11.771979617824012 L -32.466665149942685 11.193876045433946 L -32.46666514994268 11.193876045433946 Z " stroke="#191919" stroke-width="0.35 px" style="stroke-width:0.35;stroke-miterlimit:4;stroke-dasharray:none;stroke-linecap:square;fill:#cccccc;fill-opacity:1.0;fill-rule: evenodd"/>
<path id="Pocket_f0077"  d="M 35.651647417971965 5.064335783986956 Q 35.67908355674284 4.492992331328761 35.13378599460213 4.32025944120818 L 35.13378599460212 4.32025944120818 Q 35.67908355674283 4.492992331328762 35.65164741797197 5.064335783986957 L 35.65164741797197 5.064335783986966 Z " stroke="#191919" stroke-width="0.35 px" style="stroke-width:0.35;stroke-miterlimit:4;stroke-dasharray:none;stroke-linecap:square;fill:#cccccc;fill-opacity:1.0;fill-rule: evenodd"/>
<path id="Pocket_f0078"  d="M -33.5903409919435 7.1467614290671895 C -32.760013186474296 7.238048635839176 -32.137084912586005 7.791610398316422 -31.721556170278653 8.807446716498934 C -31.43274471709228 9.79787406001599 -31.923398188653984 10.781803985781849 -32.46666514994268 11.193876045433942 L -32.46666514994268 11.193876045433946 C -31.923398188653966 10.78180398578184 -31.432744717092262 9.797874060015989 -31.72155617027865 8.807446716498935 C -32.13708491258606 7.791610398316429 -32.76001318647428 7.238048635839176 -33.59034099194349 7.146761429067189 L -33.5903409919435 7.1467614290671895 Z " stroke="#191919" stroke-width="0.35 px" style="stroke-width:0.35;stroke-miterlimit:4;stroke-dasharray:none;stroke-linecap:square;fill:#cccccc;fill-opacity:1.0;fill-rule: evenodd"/>
<path id="Pocket_f0079"  d="M 35.13378599460212 4.32025944120818 L 34.11396502194488 3.952796144574436 L 34.11396502194488 3.952796144574436 L 35.13378599460212 4.32025944120818 L 35.13378599460212 4.32025944120818 Z " stroke="#191919" stroke-width="0.35 px" style="stroke-width:0.35;stroke-miterlimit:4;stroke-dasharray:none;stroke-linecap:square;fill:#cccccc;fill-opacity:1.0;fill-rule: evenodd"/>
<path id="Pocket_f0080"  d="M -34.67410916360483 7.124164067753154 L -33.5903409919435 7.1467614290671895 L -33.5903409919435 7.146761429067189 L -34.67410916360483 7.124164067753154 L -34.67410916360483 7.124164067753154 Z " stroke="#191919" stroke-width="0.35 px" style="stroke-width:0.35;stroke-miterlimit:4;stroke-dasharray:none;stroke-linecap:square;fill:#cccccc;fill-opacity:1.0;fill-rule: evenodd"/>
<path id="Pocket_f0081"  d="M 34.113965021944864 3.952796144574431 Q 32.977393072189855 3.4253458198944418 32.87326451278716 1.782336612550643 Q 33.1544232088727 0.16021707320859296 34.341359936532875 -0.24125627149348006 L 34.34135993653288 -0.241256271493485 Q 33.154423208872686 0.1602170732085928 32.873264512787166 1.7823366125506435 Q 32.97739307218984 3.4253458198944413 34.11396502194488 3.9527961445744357 L 34.11396502194488 3.9527961445744357 Z " stroke="#191919" stroke-width="0.35 px" style="stroke-width:0.35;stroke-miterlimit:4;stroke-dasharray:none;stroke-linecap:square;fill:#cccccc;fill-opacity:1.0;fill-rule: evenodd"/>
<path id="Pocket_f0082"  d="M -35.40244689848175 6.584391706797121 Q -35.24601600372607 7.134587542633765 -34.67410916360483 7.124164067753153 L -34.67410916360483 7.124164067753154 Q -35.24601600372607 7.134587542633765 -35.40244689848175 6.584391706797121 L -35.402446898481756 6.584391706797123 Z " stroke="#191919" stroke-width="0.35 px" style="stroke-width:0.35;stroke-miterlimit:4;stroke-dasharray:none;stroke-linecap:square;fill:#cccccc;fill-opacity:1.0;fill-rule: evenodd"/>
<path id="Pocket_f0083"  d="M 34.34135993653288 -0.24125627149348564 L 35.39493244589241 -0.4963034400063089 L 35.39493244589241 -0.496303440006309 L 34.34135993653288 -0.24125627149348539 L 34.34135993653288 -0.24125627149348539 Z " stroke="#191919" stroke-width="0.35 px" style="stroke-width:0.35;stroke-miterlimit:4;stroke-dasharray:none;stroke-linecap:square;fill:#cccccc;fill-opacity:1.0;fill-rule: evenodd"/>
<path id="Pocket_f0084"  d="M -35.65164741797197 5.064335783986954 L -35.402446898481756 6.584391706797122 L -35.402446898481756 6.584391706797123 L -35.65164741797197 5.0643357839869605 L -35.65164741797197 5.0643357839869605 Z " stroke="#191919" stroke-width="0.35 px" style="stroke-width:0.35;stroke-miterlimit:4;stroke-dasharray:none;stroke-linecap:square;fill:#cccccc;fill-opacity:1.0;fill-rule: evenodd"/>
<path id="Pocket_f0085"  d="M 35.39493244589241 -0.49630344000630916 Q 35.95570916088961 -0.6090667253565267 35.99020694722406 -1.1800273066089213 L 35.99020694722406 -1.180027306608921 Q 35.95570916088961 -0.6090667253565267 35.39493244589241 -0.49630344000630894 L 35.39493244589241 -0.4963034400063089 Z " stroke="#191919" stroke-width="0.35 px" style="stroke-width:0.35;stroke-miterlimit:4;stroke-dasharray:none;stroke-linecap:square;fill:#cccccc;fill-opacity:1.0;fill-rule: evenodd"/>
<path id="Pocket_f0086"  d="M -35.133785994602135 4.320259441208178 Q -35.67908355674289 4.4929923313287565 -35.65164741797197 5.0643357839869605 L -35.65164741797197 5.06433578398696 Q -35.67908355674289 4.492992331328756 -35.133785994602135 4.320259441208177 L -35.133785994602135 4.320259441208177 Z " stroke="#191919" stroke-width="0.35 px" style="stroke-width:0.35;stroke-miterlimit:4;stroke-dasharray:none;stroke-linecap:square;fill:#cccccc;fill-opacity:1.0;fill-rule: evenodd"/>
<path id="Pocket_f0087"  d="M 35.99020694722406 -1.1800273066089153 L 35.90681420617999 -2.718115912029827 L 35.90681420617999 -2.718115912029827 L 35.99020694722405 -1.1800273066089213 L 35.99020694722406 -1.1800273066089213 Z " stroke="#191919" stroke-width="0.35 px" style="stroke-width:0.35;stroke-miterlimit:4;stroke-dasharray:none;stroke-linecap:square;fill:#cccccc;fill-opacity:1.0;fill-rule: evenodd"/>
<path id="Pocket_f0088"  d="M -34.11396502194489 3.9527961445744366 L -35.133785994602135 4.320259441208177 L -35.133785994602135 4.320259441208177 L -34.11396502194489 3.952796144574436 L -34.11396502194489 3.952796144574436 Z " stroke="#191919" stroke-width="0.35 px" style="stroke-width:0.35;stroke-miterlimit:4;stroke-dasharray:none;stroke-linecap:square;fill:#cccccc;fill-opacity:1.0;fill-rule: evenodd"/>
<path id="Pocket_f0089"  d="M 35.90681420617997 -2.718115912029834 Q 35.81078694974332 -3.2819996310954664 35.24110567614994 -3.3334712652550493 L 35.24110567614994 -3.333471265255049 Q 35.81078694974332 -3.281999631095466 35.90681420617997 -2.718115912029833 L 35.90681420617999 -2.718115912029827 Z " stroke="#191919" stroke-width="0.35 px" style="stroke-width:0.35;stroke-miterlimit:4;stroke-dasharray:none;stroke-linecap:square;fill:#cccccc;fill-opacity:1.0;fill-rule: evenodd"/>
<path id="Pocket_f0090"  d="M -34.3413599365329 -0.24125627149348863 Q -33.1544232088727 0.16021707320858414 -32.87326451278719 1.7823366125506364 Q -32.977393072189884 3.4253458198944373 -34.1139650219449 3.9527961445744326 L -34.11396502194489 3.952796144574436 Q -32.97739307218987 3.425345819894437 -32.87326451278718 1.7823366125506364 Q -33.15442320887273 0.16021707320858533 -34.3413599365329 -0.241256271493489 L -34.3413599365329 -0.24125627149348894 Z " stroke="#191919" stroke-width="0.35 px" style="stroke-width:0.35;stroke-miterlimit:4;stroke-dasharray:none;stroke-linecap:square;fill:#cccccc;fill-opacity:1.0;fill-rule: evenodd"/>
<path id="Pocket_f0091"  d="M 35.24110567614994 -3.3334712652550493 L 34.166133804469865 -3.473112110787995 L 34.16613380446987 -3.473112110787995 L 35.24110567614994 -3.3334712652550493 L 35.24110567614994 -3.3334712652550493 Z " stroke="#191919" stroke-width="0.35 px" style="stroke-width:0.35;stroke-miterlimit:4;stroke-dasharray:none;stroke-linecap:square;fill:#cccccc;fill-opacity:1.0;fill-rule: evenodd"/>
<path id="Pocket_f0092"  d="M -35.394932445892415 -0.4963034400063186 L -34.3413599365329 -0.24125627149348894 L -34.3413599365329 -0.241256271493489 L -35.394932445892415 -0.49630344000631865 L -35.394932445892415 -0.49630344000631865 Z " stroke="#191919" stroke-width="0.35 px" style="stroke-width:0.35;stroke-miterlimit:4;stroke-dasharray:none;stroke-linecap:square;fill:#cccccc;fill-opacity:1.0;fill-rule: evenodd"/>
<path id="Pocket_f0093"  d="M 34.16613380446986 -3.4731121107879983 C 33.35054329936308 -3.6536384153400614 32.79111721210218 -4.271305568569281 32.48785554268712 -5.326113570475651 C 32.307821146814916 -6.341960997297627 32.90197992447571 -7.2670741119499755 33.48661505817022 -7.617993096936206 L 33.48661505817023 -7.617993096936211 C 32.901979924475704 -7.267074111949969 32.307821146814874 -6.341960997297625 32.48785554268713 -5.326113570475652 C 32.791117212102215 -4.271305568569285 33.350543299363096 -3.653638415340062 34.16613380446987 -3.4731121107879943 L 34.16613380446987 -3.473112110787995 Z " stroke="#191919" stroke-width="0.35 px" style="stroke-width:0.35;stroke-miterlimit:4;stroke-dasharray:none;stroke-linecap:square;fill:#cccccc;fill-opacity:1.0;fill-rule: evenodd"/>
<path id="Pocket_f0094"  d="M -35.990206947224074 -1.1800273066089337 Q -35.955709160889626 -0.6090667253565423 -35.394932445892415 -0.4963034400063187 L -35.394932445892415 -0.496303440006319 Q -35.955709160889626 -0.6090667253565416 -35.990206947224074 -1.1800273066089346 L -35.99020694722408 -1.1800273066089346 Z " stroke="#191919" stroke-width="0.35 px" style="stroke-width:0.35;stroke-miterlimit:4;stroke-dasharray:none;stroke-linecap:square;fill:#cccccc;fill-opacity:1.0;fill-rule: evenodd"/>
<path id="Pocket_f0095"  d="M 33.48661505817023 -7.617993096936211 L 34.46072802565202 -8.09356435051274 L 34.46072802565202 -8.09356435051274 L 33.48661505817023 -7.61799309693621 L 33.48661505817023 -7.617993096936211 Z " stroke="#191919" stroke-width="0.35 px" style="stroke-width:0.35;stroke-miterlimit:4;stroke-dasharray:none;stroke-linecap:square;fill:#cccccc;fill-opacity:1.0;fill-rule: evenodd"/>
<path id="Pocket_f0096"  d="M -35.90681420617998 -2.718115912029838 L -35.99020694722408 -1.1800273066089346 L -35.99020694722408 -1.180027306608935 L -35.90681420617999 -2.718115912029832 L -35.90681420617998 -2.718115912029832 Z " stroke="#191919" stroke-width="0.35 px" style="stroke-width:0.35;stroke-miterlimit:4;stroke-dasharray:none;stroke-linecap:square;fill:#cccccc;fill-opacity:1.0;fill-rule: evenodd"/>
<path id="Pocket_f0097"  d="M 34.460728025652024 -8.09356435051274 Q 34.98415331959051 -8.324241710198208 34.89510491935623 -8.889269554664095 L 34.895104919356235 -8.889269554664095 Q 34.984153319590504 -8.324241710198207 34.46072802565202 -8.09356435051274 L 34.46072802565202 -8.09356435051274 Z " stroke="#191919" stroke-width="0.35 px" style="stroke-width:0.35;stroke-miterlimit:4;stroke-dasharray:none;stroke-linecap:square;fill:#cccccc;fill-opacity:1.0;fill-rule: evenodd"/>
<path id="Pocket_f0098"  d="M -35.24110567614995 -3.3334712652550555 Q -35.81078694974336 -3.2819996310954815 -35.90681420617998 -2.718115912029832 L -35.90681420617998 -2.718115912029832 Q -35.81078694974336 -3.281999631095481 -35.24110567614995 -3.3334712652550555 L -35.24110567614995 -3.3334712652550555 Z " stroke="#191919" stroke-width="0.35 px" style="stroke-width:0.35;stroke-miterlimit:4;stroke-dasharray:none;stroke-linecap:square;fill:#cccccc;fill-opacity:1.0;fill-rule: evenodd"/>
<path id="Pocket_f0099"  d="M 34.895104919356235 -8.88926955466409 L 34.4830182696647 -10.373471528968963 L 34.4830182696647 -10.373471528968963 L 34.89510491935623 -8.889269554664097 L 34.895104919356235 -8.889269554664095 Z " stroke="#191919" stroke-width="0.35 px" style="stroke-width:0.35;stroke-miterlimit:4;stroke-dasharray:none;stroke-linecap:square;fill:#cccccc;fill-opacity:1.0;fill-rule: evenodd"/>
<path id="Pocket_f0100"  d="M -34.16613380446989 -3.473112110787997 L -35.24110567614995 -3.3334712652550555 L -35.24110567614995 -3.333471265255056 L -34.16613380446989 -3.473112110787997 L -34.16613380446989 -3.473112110787997 Z " stroke="#191919" stroke-width="0.35 px" style="stroke-width:0.35;stroke-miterlimit:4;stroke-dasharray:none;stroke-linecap:square;fill:#cccccc;fill-opacity:1.0;fill-rule: evenodd"/>
<path id="Pocket_f0101"  d="M 34.48301826966468 -10.373471528968969 Q 34.26801774580483 -10.903528938450274 33.70059042395677 -10.831332560242164 L 33.70059042395677 -10.831332560242165 Q 34.26801774580483 -10.903528938450274 34.48301826966468 -10.373471528968967 L 34.4830182696647 -10.373471528968963 Z " stroke="#191919" stroke-width="0.35 px" style="stroke-width:0.35;stroke-miterlimit:4;stroke-dasharray:none;stroke-linecap:square;fill:#cccccc;fill-opacity:1.0;fill-rule: evenodd"/>
<path id="Pocket_f0102"  d="M -33.48661505817024 -7.617993096936215 C -32.901979924475704 -7.267074111949983 -32.30782114681491 -6.341960997297636 -32.48785554268713 -5.326113570475661 C -32.791117212102236 -4.271305568569291 -33.35054329936308 -3.6536384153400685 -34.166133804469894 -3.4731121107879996 L -34.16613380446989 -3.473112110787997 C -33.35054329936308 -3.653638415340068 -32.7911172121022 -4.271305568569291 -32.487855542687136 -5.32611357047566 C -32.30782114681492 -6.341960997297639 -32.90197992447571 -7.267074111949986 -33.48661505817024 -7.617993096936218 L -33.486615058170244 -7.617993096936218 Z " stroke="#191919" stroke-width="0.35 px" style="stroke-width:0.35;stroke-miterlimit:4;stroke-dasharray:none;stroke-linecap:square;fill:#cccccc;fill-opacity:1.0;fill-rule: evenodd"/>
<path id="Pocket_f0103"  d="M 33.70059042395677 -10.831332560242165 L 32.62073214322821 -10.736621503936844 L 32.62073214322821 -10.736621503936844 L 33.70059042395677 -10.831332560242165 L 33.70059042395677 -10.831332560242165 Z " stroke="#191919" stroke-width="0.35 px" style="stroke-width:0.35;stroke-miterlimit:4;stroke-dasharray:none;stroke-linecap:square;fill:#cccccc;fill-opacity:1.0;fill-rule: evenodd"/>
<path id="Pocket_f0104"  d="M -34.460728025652024 -8.09356435051275 L -33.486615058170244 -7.6179930969362175 L -33.486615058170244 -7.617993096936218 L -34.46072802565202 -8.09356435051275 L -34.460728025652024 -8.09356435051275 Z " stroke="#191919" stroke-width="0.35 px" style="stroke-width:0.35;stroke-miterlimit:4;stroke-dasharray:none;stroke-linecap:square;fill:#cccccc;fill-opacity:1.0;fill-rule: evenodd"/>
<path id="Pocket_f0105"  d="M 32.6207321432282 -10.736621503936844 C 31.78540187173972 -10.737599353894034 31.106274675686695 -11.220565720080618 30.58335055506905 -12.185520602496572 C 30.189148094794234 -13.138916007662337 30.57054379691156 -14.170127065777788 31.066073277387048 -14.638521031957403 L 31.066073277387048 -14.638521031957408 C 30.570543796911554 -14.170127065777786 30.189148094794227 -13.138916007662324 30.58335055506905 -12.185520602496574 C 31.106274675686706 -11.220565720080627 31.785401871739733 -10.73759935389403 32.62073214322821 -10.736621503936844 L 32.62073214322821 -10.736621503936844 Z " stroke="#191919" stroke-width="0.35 px" style="stroke-width:0.35;stroke-miterlimit:4;stroke-dasharray:none;stroke-linecap:square;fill:#cccccc;fill-opacity:1.0;fill-rule: evenodd"/>
<path id="Pocket_f0106"  d="M -34.89510491935625 -8.889269554664109 Q -34.98415331959049 -8.32424171019822 -34.460728025652024 -8.09356435051275 L -34.460728025652024 -8.09356435051275 Q -34.98415331959049 -8.32424171019822 -34.89510491935625 -8.88926955466411 L -34.89510491935626 -8.889269554664113 Z " stroke="#191919" stroke-width="0.35 px" style="stroke-width:0.35;stroke-miterlimit:4;stroke-dasharray:none;stroke-linecap:square;fill:#cccccc;fill-opacity:1.0;fill-rule: evenodd"/>
<path id="Pocket_f0107"  d="M 31.066073277387048 -14.638521031957408 L 31.915178263280453 -15.312379187339886 L 31.915178263280456 -15.312379187339886 L 31.066073277387048 -14.63852103195741 L 31.066073277387048 -14.638521031957408 Z " stroke="#191919" stroke-width="0.35 px" style="stroke-width:0.35;stroke-miterlimit:4;stroke-dasharray:none;stroke-linecap:square;fill:#cccccc;fill-opacity:1.0;fill-rule: evenodd"/>
<path id="Pocket_f0108"  d="M -34.48301826966468 -10.373471528968972 L -34.89510491935626 -8.889269554664114 L -34.89510491935626 -8.889269554664113 L -34.48301826966468 -10.373471528968967 L -34.48301826966468 -10.373471528968967 Z " stroke="#191919" stroke-width="0.35 px" style="stroke-width:0.35;stroke-miterlimit:4;stroke-dasharray:none;stroke-linecap:square;fill:#cccccc;fill-opacity:1.0;fill-rule: evenodd"/>
<path id="Pocket_f0109"  d="M 31.915178263280456 -15.312379187339886 Q 32.37677735116107 -15.650184404401182 32.168346568582876 -16.182859438056685 L 32.16834656858287 -16.182859438056685 Q 32.37677735116106 -15.650184404401188 31.915178263280456 -15.312379187339886 L 31.915178263280456 -15.312379187339886 Z " stroke="#191919" stroke-width="0.35 px" style="stroke-width:0.35;stroke-miterlimit:4;stroke-dasharray:none;stroke-linecap:square;fill:#cccccc;fill-opacity:1.0;fill-rule: evenodd"/>
<path id="Pocket_f0110"  d="M -33.70059042395678 -10.831332560242172 Q -34.268017745804855 -10.903528938450291 -34.48301826966468 -10.373471528968967 L -34.48301826966468 -10.373471528968967 Q -34.268017745804855 -10.903528938450291 -33.700590423956776 -10.83133256024217 L -33.700590423956776 -10.831332560242172 Z " stroke="#191919" stroke-width="0.35 px" style="stroke-width:0.35;stroke-miterlimit:4;stroke-dasharray:none;stroke-linecap:square;fill:#cccccc;fill-opacity:1.0;fill-rule: evenodd"/>
<path id="Pocket_f0111"  d="M 32.16834656858287 -16.18285943805668 L 31.44683472398203 -17.543775146499037 L 31.446834723982025 -17.543775146499037 L 32.16834656858287 -16.18285943805669 L 32.16834656858287 -16.182859438056685 Z " stroke="#191919" stroke-width="0.35 px" style="stroke-width:0.35;stroke-miterlimit:4;stroke-dasharray:none;stroke-linecap:square;fill:#cccccc;fill-opacity:1.0;fill-rule: evenodd"/>
<path id="Pocket_f0112"  d="M -32.620732143228224 -10.736621503936847 L -33.70059042395678 -10.831332560242172 L -33.700590423956776 -10.831332560242172 L -32.620732143228224 -10.736621503936847 L -32.620732143228224 -10.736621503936847 Z " stroke="#191919" stroke-width="0.35 px" style="stroke-width:0.35;stroke-miterlimit:4;stroke-dasharray:none;stroke-linecap:square;fill:#cccccc;fill-opacity:1.0;fill-rule: evenodd"/>
<path id="Pocket_f0113"  d="M 31.446834723982015 -17.543775146499037 Q 31.122914118238736 -18.015221351045174 30.584273019055424 -17.822732782873864 L 30.584273019055427 -17.822732782873867 Q 31.122914118238732 -18.01522135104517 31.44683472398201 -17.543775146499033 L 31.446834723982025 -17.543775146499037 Z " stroke="#191919" stroke-width="0.35 px" style="stroke-width:0.35;stroke-miterlimit:4;stroke-dasharray:none;stroke-linecap:square;fill:#cccccc;fill-opacity:1.0;fill-rule: evenodd"/>
<path id="Pocket_f0114"  d="M -31.066073277387055 -14.638521031957415 C -30.570543796911565 -14.1701270657778 -30.189148094794238 -13.138916007662345 -30.58335055506906 -12.185520602496585 C -31.106274675686716 -11.220565720080634 -31.785401871739744 -10.737599353894046 -32.620732143228224 -10.73662150393685 L -32.620732143228224 -10.736621503936847 C -31.785401871739744 -10.737599353894042 -31.106274675686695 -11.22056572008062 -30.58335055506906 -12.185520602496585 C -30.189148094794263 -13.13891600766234 -30.57054379691158 -14.170127065777805 -31.06607327738706 -14.638521031957419 L -31.06607327738706 -14.638521031957419 Z " stroke="#191919" stroke-width="0.35 px" style="stroke-width:0.35;stroke-miterlimit:4;stroke-dasharray:none;stroke-linecap:square;fill:#cccccc;fill-opacity:1.0;fill-rule: evenodd"/>
<path id="Pocket_f0115"  d="M 30.584273019055427 -17.822732782873867 L 29.550021302308966 -17.498098408459338 L 29.550021302308966 -17.498098408459338 L 30.584273019055427 -17.822732782873867 L 30.584273019055427 -17.822732782873867 Z " stroke="#191919" stroke-width="0.35 px" style="stroke-width:0.35;stroke-miterlimit:4;stroke-dasharray:none;stroke-linecap:square;fill:#cccccc;fill-opacity:1.0;fill-rule: evenodd"/>
<path id="Pocket_f0116"  d="M -31.91517826328046 -15.312379187339898 L -31.066073277387055 -14.638521031957419 L -31.06607327738706 -14.638521031957419 L -31.91517826328046 -15.312379187339898 L -31.91517826328046 -15.312379187339898 Z " stroke="#191919" stroke-width="0.35 px" style="stroke-width:0.35;stroke-miterlimit:4;stroke-dasharray:none;stroke-linecap:square;fill:#cccccc;fill-opacity:1.0;fill-rule: evenodd"/>
<path id="Pocket_f0117"  d="M 29.550021302308956 -17.498098408459338 C 28.73401037953067 -17.319482080644455 27.96693730757728 -17.645164689284073 27.24880208644873 -18.47514623437818 C 26.65886403068923 -19.32150990836506 26.80966301812292 -20.410600626974933 27.192916437613796 -20.974567993071854 L 27.192916437613793 -20.97456799307186 C 26.809663018122915 -20.41060062697491 26.6588640306892 -19.321509908365044 27.24880208644873 -18.47514623437818 C 27.96693730757729 -17.645164689284094 28.734010379530677 -17.319482080644466 29.550021302308963 -17.498098408459338 L 29.550021302308966 -17.498098408459338 Z " stroke="#191919" stroke-width="0.35 px" style="stroke-width:0.35;stroke-miterlimit:4;stroke-dasharray:none;stroke-linecap:square;fill:#cccccc;fill-opacity:1.0;fill-rule: evenodd"/>
<path id="Pocket_f0118"  d="M -32.16834656858288 -16.182859438056703 Q -32.37677735116107 -15.650184404401195 -31.915178263280463 -15.312379187339898 L -31.91517826328046 -15.312379187339898 Q -32.37677735116107 -15.650184404401195 -32.16834656858288 -16.182859438056703 L -32.16834656858289 -16.182859438056706 Z " stroke="#191919" stroke-width="0.35 px" style="stroke-width:0.35;stroke-miterlimit:4;stroke-dasharray:none;stroke-linecap:square;fill:#cccccc;fill-opacity:1.0;fill-rule: evenodd"/>
<path id="Pocket_f0119"  d="M 27.192916437613793 -20.97456799307186 L 27.87731023649086 -21.81520419185415 L 27.87731023649086 -21.81520419185415 L 27.192916437613793 -20.974567993071858 L 27.192916437613793 -20.97456799307186 Z " stroke="#191919" stroke-width="0.35 px" style="stroke-width:0.35;stroke-miterlimit:4;stroke-dasharray:none;stroke-linecap:square;fill:#cccccc;fill-opacity:1.0;fill-rule: evenodd"/>
<path id="Pocket_f0120"  d="M -31.446834723982004 -17.54377514649904 L -32.16834656858289 -16.182859438056703 L -32.16834656858289 -16.182859438056706 L -31.446834723982008 -17.543775146499037 L -31.446834723982008 -17.543775146499037 Z " stroke="#191919" stroke-width="0.35 px" style="stroke-width:0.35;stroke-miterlimit:4;stroke-dasharray:none;stroke-linecap:square;fill:#cccccc;fill-opacity:1.0;fill-rule: evenodd"/>
<path id="Pocket_f0121"  d="M 27.87731023649086 -21.815204191854153 Q 28.255499257994856 -22.24434186978503 27.937432084811892 -22.719756800082187 L 27.937432084811892 -22.719756800082187 Q 28.255499257994856 -22.244341869785032 27.87731023649086 -21.81520419185415 L 27.87731023649086 -21.81520419185415 Z " stroke="#191919" stroke-width="0.35 px" style="stroke-width:0.35;stroke-miterlimit:4;stroke-dasharray:none;stroke-linecap:square;fill:#cccccc;fill-opacity:1.0;fill-rule: evenodd"/>
<path id="Pocket_f0122"  d="M -30.584273019055434 -17.822732782873878 Q -31.122914118238754 -18.015221351045184 -31.446834723982008 -17.543775146499037 L -31.446834723982008 -17.543775146499037 Q -31.122914118238754 -18.015221351045184 -30.584273019055434 -17.822732782873878 L -30.584273019055434 -17.822732782873878 Z " stroke="#191919" stroke-width="0.35 px" style="stroke-width:0.35;stroke-miterlimit:4;stroke-dasharray:none;stroke-linecap:square;fill:#cccccc;fill-opacity:1.0;fill-rule: evenodd"/>
<path id="Pocket_f0123"  d="M 27.937432084811896 -22.719756800082184 L 26.940232137252455 -23.89375133668443 L 26.940232137252455 -23.89375133668443 L 27.937432084811892 -22.719756800082187 L 27.937432084811892 -22.719756800082187 Z " stroke="#191919" stroke-width="0.35 px" style="stroke-width:0.35;stroke-miterlimit:4;stroke-dasharray:none;stroke-linecap:square;fill:#cccccc;fill-opacity:1.0;fill-rule: evenodd"/>
<path id="Pocket_f0124"  d="M -29.550021302308984 -17.498098408459345 L -30.584273019055438 -17.822732782873878 L -30.584273019055434 -17.822732782873878 L -29.550021302308984 -17.49809840845935 L -29.550021302308984 -17.498098408459345 Z " stroke="#191919" stroke-width="0.35 px" style="stroke-width:0.35;stroke-miterlimit:4;stroke-dasharray:none;stroke-linecap:square;fill:#cccccc;fill-opacity:1.0;fill-rule: evenodd"/>
<path id="Pocket_f0125"  d="M 26.940232137252444 -23.893751336684428 Q 26.522537617138397 -24.28454203574563 26.037868999761077 -23.980761829123143 L 26.037868999761077 -23.980761829123146 Q 26.522537617138397 -24.28454203574563 26.940232137252448 -23.893751336684428 L 26.940232137252455 -23.89375133668443 Z " stroke="#191919" stroke-width="0.35 px" style="stroke-width:0.35;stroke-miterlimit:4;stroke-dasharray:none;stroke-linecap:square;fill:#cccccc;fill-opacity:1.0;fill-rule: evenodd"/>
<path id="Pocket_f0126"  d="M -27.1929164376138 -20.974567993071865 C -26.80966301812292 -20.410600626974922 -26.658864030689212 -19.321509908365073 -27.248802086448737 -18.475146234378187 C -27.966937307577304 -17.645164689284112 -28.7340103795307 -17.31948208064448 -29.550021302308984 -17.49809840845935 L -29.550021302308984 -17.498098408459345 C -28.734010379530687 -17.319482080644473 -27.966937307577282 -17.645164689284087 -27.248802086448734 -18.475146234378187 C -26.658864030689234 -19.321509908365073 -26.80966301812293 -20.410600626974947 -27.1929164376138 -20.97456799307187 L -27.192916437613803 -20.974567993071872 Z " stroke="#191919" stroke-width="0.35 px" style="stroke-width:0.35;stroke-miterlimit:4;stroke-dasharray:none;stroke-linecap:square;fill:#cccccc;fill-opacity:1.0;fill-rule: evenodd"/>
<path id="Pocket_f0127"  d="M 26.037868999761077 -23.980761829123146 L 25.09758430778356 -23.441383679141843 L 25.09758430778356 -23.44138367914184 L 26.037868999761077 -23.980761829123146 L 26.037868999761077 -23.980761829123146 Z " stroke="#191919" stroke-width="0.35 px" style="stroke-width:0.35;stroke-miterlimit:4;stroke-dasharray:none;stroke-linecap:square;fill:#cccccc;fill-opacity:1.0;fill-rule: evenodd"/>
<path id="Pocket_f0128"  d="M -27.87731023649086 -21.815204191854164 L -27.192916437613803 -20.974567993071872 L -27.192916437613803 -20.974567993071872 L -27.877310236490857 -21.815204191854164 L -27.87731023649086 -21.815204191854164 Z " stroke="#191919" stroke-width="0.35 px" style="stroke-width:0.35;stroke-miterlimit:4;stroke-dasharray:none;stroke-linecap:square;fill:#cccccc;fill-opacity:1.0;fill-rule: evenodd"/>
<path id="Pocket_f0129"  d="M 25.09758430778355 -23.441383679141836 C 24.479042849680294 -23.15441880641127 23.379902681837113 -23.181801636923062 22.640129917134406 -23.900894561990494 C 21.88204111370846 -24.60065148006853 21.795192193407146 -25.696697187607977 22.048249047973624 -26.329867466388265 L 22.04824904797362 -26.32986746638827 C 21.795192193407154 -25.696697187607977 21.882041113708425 -24.600651480068514 22.640129917134406 -23.90089456199049 C 23.37990268183714 -23.181801636923076 24.479042849680297 -23.15441880641128 25.097584307783556 -23.44138367914184 L 25.09758430778356 -23.44138367914184 Z " stroke="#191919" stroke-width="0.35 px" style="stroke-width:0.35;stroke-miterlimit:4;stroke-dasharray:none;stroke-linecap:square;fill:#cccccc;fill-opacity:1.0;fill-rule: evenodd"/>
<path id="Pocket_f0130"  d="M -27.9374320848119 -22.719756800082205 Q -28.255499257994835 -22.244341869785025 -27.877310236490857 -21.815204191854164 L -27.87731023649086 -21.815204191854164 Q -28.255499257994835 -22.244341869785032 -27.9374320848119 -22.719756800082205 L -27.937432084811906 -22.719756800082212 Z " stroke="#191919" stroke-width="0.35 px" style="stroke-width:0.35;stroke-miterlimit:4;stroke-dasharray:none;stroke-linecap:square;fill:#cccccc;fill-opacity:1.0;fill-rule: evenodd"/>
<path id="Pocket_f0131"  d="M 22.04824904797362 -26.32986746638827 L 22.535930166447933 -27.297974494215342 L 22.53593016644793 -27.297974494215342 L 22.04824904797362 -26.32986746638827 L 22.04824904797362 -26.32986746638827 Z " stroke="#191919" stroke-width="0.35 px" style="stroke-width:0.35;stroke-miterlimit:4;stroke-dasharray:none;stroke-linecap:square;fill:#cccccc;fill-opacity:1.0;fill-rule: evenodd"/>
<path id="Pocket_f0132"  d="M -26.940232137252433 -23.89375133668443 L -27.937432084811903 -22.719756800082212 L -27.937432084811906 -22.719756800082212 L -26.940232137252437 -23.893751336684428 L -26.940232137252437 -23.893751336684428 Z " stroke="#191919" stroke-width="0.35 px" style="stroke-width:0.35;stroke-miterlimit:4;stroke-dasharray:none;stroke-linecap:square;fill:#cccccc;fill-opacity:1.0;fill-rule: evenodd"/>
<path id="Pocket_f0133"  d="M 22.53593016644793 -27.297974494215342 Q 22.813025423256676 -27.79837863214802 22.40019432698072 -28.194303585331888 L 22.40019432698072 -28.194303585331888 Q 22.813025423256676 -27.798378632148015 22.53593016644793 -27.297974494215342 L 22.53593016644793 -27.297974494215342 Z " stroke="#191919" stroke-width="0.35 px" style="stroke-width:0.35;stroke-miterlimit:4;stroke-dasharray:none;stroke-linecap:square;fill:#cccccc;fill-opacity:1.0;fill-rule: evenodd"/>
<path id="Pocket_f0134"  d="M -26.03786899976108 -23.98076182912316 Q -26.522537617138404 -24.284542035745655 -26.940232137252437 -23.893751336684424 L -26.940232137252437 -23.893751336684428 Q -26.522537617138408 -24.284542035745652 -26.03786899976108 -23.980761829123157 L -26.03786899976108 -23.98076182912316 Z " stroke="#191919" stroke-width="0.35 px" style="stroke-width:0.35;stroke-miterlimit:4;stroke-dasharray:none;stroke-linecap:square;fill:#cccccc;fill-opacity:1.0;fill-rule: evenodd"/>
<path id="Pocket_f0135"  d="M 22.400194326980724 -28.194303585331884 L 21.173934237702433 -29.126482270363717 L 21.173934237702433 -29.126482270363717 L 22.400194326980717 -28.194303585331888 L 22.40019432698072 -28.194303585331888 Z " stroke="#191919" stroke-width="0.35 px" style="stroke-width:0.35;stroke-miterlimit:4;stroke-dasharray:none;stroke-linecap:square;fill:#cccccc;fill-opacity:1.0;fill-rule: evenodd"/>
<path id="Pocket_f0136"  d="M -25.09758430778357 -23.44138367914185 L -26.03786899976108 -23.98076182912316 L -26.03786899976108 -23.98076182912316 L -25.09758430778357 -23.44138367914185 L -25.09758430778357 -23.44138367914185 Z " stroke="#191919" stroke-width="0.35 px" style="stroke-width:0.35;stroke-miterlimit:4;stroke-dasharray:none;stroke-linecap:square;fill:#cccccc;fill-opacity:1.0;fill-rule: evenodd"/>
<path id="Pocket_f0137"  d="M 21.173934237702426 -29.12648227036371 Q 20.681996734744033 -29.41834452518453 20.273963165050777 -29.017477104945097 L 20.273963165050777 -29.017477104945097 Q 20.681996734744025 -29.418344525184537 21.173934237702422 -29.126482270363713 L 21.173934237702433 -29.126482270363717 Z " stroke="#191919" stroke-width="0.35 px" style="stroke-width:0.35;stroke-miterlimit:4;stroke-dasharray:none;stroke-linecap:square;fill:#cccccc;fill-opacity:1.0;fill-rule: evenodd"/>
<path id="Pocket_f0138"  d="M -22.048249047973627 -26.329867466388276 C -21.795192193407164 -25.69669718760799 -21.882041113708425 -24.600651480068535 -22.640129917134413 -23.900894561990498 C -23.379902681837137 -23.181801636923083 -24.47904284968031 -23.154418806411304 -25.097584307783567 -23.441383679141854 L -25.09758430778357 -23.44138367914185 C -24.479042849680308 -23.15441880641129 -23.379902681837116 -23.18180163692308 -22.640129917134416 -23.900894561990498 C -21.882041113708443 -24.600651480068542 -21.79519219340717 -25.696697187607995 -22.048249047973627 -26.32986746638828 L -22.048249047973627 -26.32986746638828 Z " stroke="#191919" stroke-width="0.35 px" style="stroke-width:0.35;stroke-miterlimit:4;stroke-dasharray:none;stroke-linecap:square;fill:#cccccc;fill-opacity:1.0;fill-rule: evenodd"/>
<path id="Pocket_f0139"  d="M 20.273963165050777 -29.017477104945097 L 19.471612164987697 -28.288575902214383 L 19.471612164987697 -28.288575902214383 L 20.27396316505078 -29.017477104945094 L 20.273963165050777 -29.017477104945097 Z " stroke="#191919" stroke-width="0.35 px" style="stroke-width:0.35;stroke-miterlimit:4;stroke-dasharray:none;stroke-linecap:square;fill:#cccccc;fill-opacity:1.0;fill-rule: evenodd"/>
<path id="Pocket_f0140"  d="M -22.535930166447926 -27.297974494215353 L -22.048249047973627 -26.32986746638828 L -22.048249047973627 -26.32986746638828 L -22.535930166447926 -27.297974494215353 L -22.535930166447926 -27.297974494215353 Z " stroke="#191919" stroke-width="0.35 px" style="stroke-width:0.35;stroke-miterlimit:4;stroke-dasharray:none;stroke-linecap:square;fill:#cccccc;fill-opacity:1.0;fill-rule: evenodd"/>
<path id="Pocket_f0141"  d="M 19.47161216498769 -28.28857590221438 C 18.929220827461148 -27.87535197920175 17.849891446809522 -27.665811968618222 16.972830435592 -28.209063623820498 C 16.105187072847123 -28.8812113427833 15.738453606889438 -29.62952733501717 15.872630037718983 -30.45401160052222 L 15.872630037718979 -30.454011600522225 C 15.738453606889436 -29.62952733501717 16.105187072847116 -28.88121134278328 16.972830435592 -28.209063623820498 C 17.84989144680954 -27.66581196861825 18.929220827461155 -27.875351979201753 19.471612164987697 -28.288575902214383 L 19.471612164987697 -28.288575902214383 Z " stroke="#191919" stroke-width="0.35 px" style="stroke-width:0.35;stroke-miterlimit:4;stroke-dasharray:none;stroke-linecap:square;fill:#cccccc;fill-opacity:1.0;fill-rule: evenodd"/>
<path id="Pocket_f0142"  d="M -22.400194326980724 -28.194303585331905 Q -22.813025423256654 -27.798378632148015 -22.535930166447926 -27.297974494215353 L -22.535930166447926 -27.297974494215353 Q -22.813025423256654 -27.798378632148015 -22.400194326980724 -28.194303585331905 L -22.400194326980728 -28.194303585331912 Z " stroke="#191919" stroke-width="0.35 px" style="stroke-width:0.35;stroke-miterlimit:4;stroke-dasharray:none;stroke-linecap:square;fill:#cccccc;fill-opacity:1.0;fill-rule: evenodd"/>
<path id="Pocket_f0143"  d="M 15.872630037718979 -30.454011600522225 L 16.140795048709304 -31.504321848746567 L 16.140795048709304 -31.504321848746567 L 15.87263003771898 -30.454011600522225 L 15.872630037718979 -30.454011600522225 Z " stroke="#191919" stroke-width="0.35 px" style="stroke-width:0.35;stroke-miterlimit:4;stroke-dasharray:none;stroke-linecap:square;fill:#cccccc;fill-opacity:1.0;fill-rule: evenodd"/>
<path id="Pocket_f0144"  d="M -21.173934237702408 -29.126482270363713 L -22.400194326980724 -28.19430358533191 L -22.400194326980728 -28.194303585331912 L -21.17393423770241 -29.12648227036371 L -21.17393423770241 -29.12648227036371 Z " stroke="#191919" stroke-width="0.35 px" style="stroke-width:0.35;stroke-miterlimit:4;stroke-dasharray:none;stroke-linecap:square;fill:#cccccc;fill-opacity:1.0;fill-rule: evenodd"/>
<path id="Pocket_f0145"  d="M 16.140795048709304 -31.50432184874657 Q 16.303839874583684 -32.052594105350565 15.815548378447795 -32.35051607064925 L 15.815548378447794 -32.35051607064925 Q 16.30383987458368 -32.05259410535057 16.140795048709304 -31.50432184874657 L 16.140795048709304 -31.504321848746567 Z " stroke="#191919" stroke-width="0.35 px" style="stroke-width:0.35;stroke-miterlimit:4;stroke-dasharray:none;stroke-linecap:square;fill:#cccccc;fill-opacity:1.0;fill-rule: evenodd"/>
<path id="Pocket_f0146"  d="M -20.273963165050777 -29.01747710494512 Q -20.681996734744025 -29.418344525184565 -21.17393423770241 -29.12648227036371 L -21.17393423770241 -29.12648227036371 Q -20.681996734744025 -29.418344525184565 -20.273963165050773 -29.017477104945115 L -20.273963165050777 -29.017477104945115 Z " stroke="#191919" stroke-width="0.35 px" style="stroke-width:0.35;stroke-miterlimit:4;stroke-dasharray:none;stroke-linecap:square;fill:#cccccc;fill-opacity:1.0;fill-rule: evenodd"/>
<path id="Pocket_f0147"  d="M 15.815548378447799 -32.35051607064925 L 14.417566706335105 -32.99729126484077 L 14.417566706335105 -32.99729126484077 L 15.815548378447794 -32.35051607064925 L 15.815548378447794 -32.35051607064925 Z " stroke="#191919" stroke-width="0.35 px" style="stroke-width:0.35;stroke-miterlimit:4;stroke-dasharray:none;stroke-linecap:square;fill:#cccccc;fill-opacity:1.0;fill-rule: evenodd"/>
<path id="Pocket_f0148"  d="M -19.471612164987704 -28.288575902214394 L -20.273963165050773 -29.017477104945115 L -20.273963165050777 -29.017477104945115 L -19.471612164987704 -28.28857590221439 L -19.471612164987704 -28.288575902214394 Z " stroke="#191919" stroke-width="0.35 px" style="stroke-width:0.35;stroke-miterlimit:4;stroke-dasharray:none;stroke-linecap:square;fill:#cccccc;fill-opacity:1.0;fill-rule: evenodd"/>
<path id="Pocket_f0149"  d="M 14.417566706335101 -32.99729126484076 Q 13.874388671421418 -33.17657792076739 13.562069345634356 -32.69736740194925 L 13.562069345634358 -32.69736740194925 Q 13.874388671421418 -33.176577920767386 14.4175667063351 -32.99729126484076 L 14.417566706335105 -32.99729126484077 Z " stroke="#191919" stroke-width="0.35 px" style="stroke-width:0.35;stroke-miterlimit:4;stroke-dasharray:none;stroke-linecap:square;fill:#cccccc;fill-opacity:1.0;fill-rule: evenodd"/>
<path id="Pocket_f0150"  d="M -15.872630037718983 -30.45401160052223 C -15.738453606889436 -29.629527335017176 -16.105187072847116 -28.88121134278328 -16.972830435592 -28.209063623820512 C -17.849891446809533 -27.665811968618257 -18.929220827461172 -27.87535197920177 -19.471612164987704 -28.288575902214394 L -19.471612164987704 -28.288575902214394 C -18.92922082746116 -27.87535197920175 -17.849891446809515 -27.665811968618254 -16.972830435592005 -28.209063623820505 C -16.10518707284713 -28.881211342783306 -15.738453606889443 -29.629527335017187 -15.872630037718984 -30.454011600522236 L -15.872630037718984 -30.454011600522236 Z " stroke="#191919" stroke-width="0.35 px" style="stroke-width:0.35;stroke-miterlimit:4;stroke-dasharray:none;stroke-linecap:square;fill:#cccccc;fill-opacity:1.0;fill-rule: evenodd"/>
<path id="Pocket_f0151"  d="M 13.562069345634358 -32.69736740194925 L 12.935169078499575 -31.81302575659332 L 12.935169078499575 -31.813025756593316 L 13.562069345634358 -32.69736740194925 L 13.562069345634358 -32.69736740194925 Z " stroke="#191919" stroke-width="0.35 px" style="stroke-width:0.35;stroke-miterlimit:4;stroke-dasharray:none;stroke-linecap:square;fill:#cccccc;fill-opacity:1.0;fill-rule: evenodd"/>
<path id="Pocket_f0152"  d="M -16.140795048709297 -31.504321848746578 L -15.872630037718986 -30.454011600522236 L -15.872630037718984 -30.454011600522236 L -16.1407950487093 -31.504321848746578 L -16.140795048709297 -31.504321848746578 Z " stroke="#191919" stroke-width="0.35 px" style="stroke-width:0.35;stroke-miterlimit:4;stroke-dasharray:none;stroke-linecap:square;fill:#cccccc;fill-opacity:1.0;fill-rule: evenodd"/>
<path id="Pocket_f0153"  d="M 12.935169078499566 -31.81302575659331 C 12.49428947766781 -31.292864674673293 11.485239126458561 -30.85619968100236 10.511900266827455 -31.198208222723043 C 9.520050032713122 -31.66812382590033 9.00102477312457 -32.32010775146551 8.954824488061833 -33.15415999941862 L 8.954824488061828 -33.15415999941862 C 9.001024773124568 -32.32010775146548 9.520050032713108 -31.66812382590031 10.511900266827457 -31.19820822272304 C 11.485239126458566 -30.85619968100238 12.49428947766782 -31.292864674673293 12.935169078499573 -31.813025756593316 L 12.935169078499575 -31.813025756593316 Z " stroke="#191919" stroke-width="0.35 px" style="stroke-width:0.35;stroke-miterlimit:4;stroke-dasharray:none;stroke-linecap:square;fill:#cccccc;fill-opacity:1.0;fill-rule: evenodd"/>
<path id="Pocket_f0154"  d="M -15.81554837844779 -32.35051607064926 Q -16.30383987458366 -32.052594105350565 -16.140795048709297 -31.504321848746578 L -16.140795048709297 -31.504321848746578 Q -16.303839874583666 -32.052594105350565 -15.81554837844779 -32.35051607064926 L -15.815548378447794 -32.35051607064927 Z " stroke="#191919" stroke-width="0.35 px" style="stroke-width:0.35;stroke-miterlimit:4;stroke-dasharray:none;stroke-linecap:square;fill:#cccccc;fill-opacity:1.0;fill-rule: evenodd"/>
<path id="Pocket_f0155"  d="M 8.954824488061828 -33.15415999941862 L 8.990934293698263 -34.23756212816926 L 8.990934293698261 -34.23756212816926 L 8.954824488061828 -33.154159999418624 L 8.954824488061828 -33.15415999941862 Z " stroke="#191919" stroke-width="0.35 px" style="stroke-width:0.35;stroke-miterlimit:4;stroke-dasharray:none;stroke-linecap:square;fill:#cccccc;fill-opacity:1.0;fill-rule: evenodd"/>
<path id="Pocket_f0156"  d="M -14.417566706335078 -32.997291264840754 L -15.815548378447794 -32.35051607064926 L -15.815548378447794 -32.35051607064927 L -14.417566706335084 -32.997291264840754 L -14.417566706335084 -32.997291264840754 Z " stroke="#191919" stroke-width="0.35 px" style="stroke-width:0.35;stroke-miterlimit:4;stroke-dasharray:none;stroke-linecap:square;fill:#cccccc;fill-opacity:1.0;fill-rule: evenodd"/>
<path id="Pocket_f0157"  d="M 8.990934293698261 -34.23756212816926 Q 9.032304893791697 -34.80806590208663 8.491384965458169 -34.99405437951923 L 8.491384965458169 -34.99405437951923 Q 9.032304893791697 -34.80806590208663 8.990934293698261 -34.23756212816926 L 8.990934293698261 -34.23756212816926 Z " stroke="#191919" stroke-width="0.35 px" style="stroke-width:0.35;stroke-miterlimit:4;stroke-dasharray:none;stroke-linecap:square;fill:#cccccc;fill-opacity:1.0;fill-rule: evenodd"/>
<path id="Pocket_f0158"  d="M -13.562069345634356 -32.697367401949265 Q -13.874388671421412 -33.17657792076743 -14.417566706335084 -32.997291264840754 L -14.417566706335084 -32.997291264840754 Q -13.874388671421414 -33.17657792076743 -13.562069345634354 -32.697367401949265 L -13.562069345634354 -32.697367401949265 Z " stroke="#191919" stroke-width="0.35 px" style="stroke-width:0.35;stroke-miterlimit:4;stroke-dasharray:none;stroke-linecap:square;fill:#cccccc;fill-opacity:1.0;fill-rule: evenodd"/>
<path id="Pocket_f0159"  d="M 8.491384965458174 -34.99405437951923 L 6.987049779754033 -35.325183593629035 L 6.987049779754034 -35.32518359362904 L 8.491384965458169 -34.99405437951923 L 8.491384965458169 -34.99405437951923 Z " stroke="#191919" stroke-width="0.35 px" style="stroke-width:0.35;stroke-miterlimit:4;stroke-dasharray:none;stroke-linecap:square;fill:#cccccc;fill-opacity:1.0;fill-rule: evenodd"/>
<path id="Pocket_f0160"  d="M -12.935169078499577 -31.813025756593326 L -13.562069345634356 -32.697367401949265 L -13.562069345634354 -32.697367401949265 L -12.935169078499577 -31.81302575659333 L -12.935169078499577 -31.813025756593326 Z " stroke="#191919" stroke-width="0.35 px" style="stroke-width:0.35;stroke-miterlimit:4;stroke-dasharray:none;stroke-linecap:square;fill:#cccccc;fill-opacity:1.0;fill-rule: evenodd"/>
<path id="Pocket_f0161"  d="M 6.98704977975403 -35.325183593629035 Q 6.418029614098607 -35.383511405893145 6.216028236773538 -34.848365139752005 L 6.216028236773539 -34.848365139752005 Q 6.418029614098607 -35.383511405893145 6.987049779754031 -35.325183593629035 L 6.987049779754034 -35.32518359362904 Z " stroke="#191919" stroke-width="0.35 px" style="stroke-width:0.35;stroke-miterlimit:4;stroke-dasharray:none;stroke-linecap:square;fill:#cccccc;fill-opacity:1.0;fill-rule: evenodd"/>
<path id="Pocket_f0162"  d="M -8.954824488061828 -33.15415999941862 C -9.001024773124565 -32.32010775146549 -9.520050032713108 -31.668123825900302 -10.511900266827453 -31.19820822272305 C -11.48523912645856 -30.856199681002373 -12.49428947766782 -31.292864674673314 -12.935169078499573 -31.81302575659333 L -12.935169078499577 -31.813025756593326 C -12.494289477667815 -31.292864674673293 -11.485239126458552 -30.856199681002373 -10.511900266827453 -31.19820822272305 C -9.520050032713119 -31.668123825900356 -9.001024773124561 -32.32010775146549 -8.954824488061828 -33.154159999418624 L -8.954824488061828 -33.154159999418624 Z " stroke="#191919" stroke-width="0.35 px" style="stroke-width:0.35;stroke-miterlimit:4;stroke-dasharray:none;stroke-linecap:square;fill:#cccccc;fill-opacity:1.0;fill-rule: evenodd"/>
<path id="Pocket_f0163"  d="M 6.216028236773539 -34.848365139752005 L 5.793891862308673 -33.849933884232556 L 5.793891862308672 -33.84993388423255 L 6.216028236773539 -34.848365139752005 L 6.216028236773539 -34.848365139752005 Z " stroke="#191919" stroke-width="0.35 px" style="stroke-width:0.35;stroke-miterlimit:4;stroke-dasharray:none;stroke-linecap:square;fill:#cccccc;fill-opacity:1.0;fill-rule: evenodd"/>
<path id="Pocket_f0164"  d="M -8.990934293698253 -34.23756212816926 L -8.954824488061828 -33.154159999418624 L -8.954824488061828 -33.154159999418624 L -8.990934293698253 -34.23756212816926 L -8.990934293698253 -34.23756212816926 Z " stroke="#191919" stroke-width="0.35 px" style="stroke-width:0.35;stroke-miterlimit:4;stroke-dasharray:none;stroke-linecap:square;fill:#cccccc;fill-opacity:1.0;fill-rule: evenodd"/>
<path id="Pocket_f0165"  d="M 5.793891862308667 -33.849933884232534 Q 5.205682324080536 -32.743584400067434 3.5594453247240727 -32.728559279449065 Q 1.9549263883756116 -33.09712541354031 1.6183012979154925 -34.30405672494445 L 1.618301297915488 -34.30405672494445 Q 1.9549263883756136 -33.097125413540326 3.559445324724073 -32.728559279449065 Q 5.20568232408054 -32.743584400067434 5.793891862308672 -33.84993388423255 L 5.793891862308672 -33.84993388423255 Z " stroke="#191919" stroke-width="0.35 px" style="stroke-width:0.35;stroke-miterlimit:4;stroke-dasharray:none;stroke-linecap:square;fill:#cccccc;fill-opacity:1.0;fill-rule: evenodd"/>
<path id="Pocket_f0166"  d="M -8.49138496545816 -34.99405437951924 Q -9.032304893791679 -34.808065902086625 -8.990934293698253 -34.23756212816926 L -8.990934293698253 -34.23756212816926 Q -9.032304893791679 -34.808065902086625 -8.49138496545816 -34.99405437951924 L -8.491384965458161 -34.99405437951925 Z " stroke="#191919" stroke-width="0.35 px" style="stroke-width:0.35;stroke-miterlimit:4;stroke-dasharray:none;stroke-linecap:square;fill:#cccccc;fill-opacity:1.0;fill-rule: evenodd"/>
<path id="Pocket_f0167"  d="M 1.6183012979154883 -34.30405672494445 L 1.4206674438196396 -35.36989205479599 L 1.42066744381964 -35.36989205479599 L 1.6183012979154885 -34.30405672494445 L 1.6183012979154885 -34.30405672494445 Z " stroke="#191919" stroke-width="0.35 px" style="stroke-width:0.35;stroke-miterlimit:4;stroke-dasharray:none;stroke-linecap:square;fill:#cccccc;fill-opacity:1.0;fill-rule: evenodd"/>
<path id="Pocket_f0168"  d="M -6.98704977975401 -35.32518359362902 L -8.491384965458161 -34.99405437951924 L -8.491384965458161 -34.99405437951925 L -6.987049779754015 -35.32518359362902 L -6.987049779754016 -35.32518359362902 Z " stroke="#191919" stroke-width="0.35 px" style="stroke-width:0.35;stroke-miterlimit:4;stroke-dasharray:none;stroke-linecap:square;fill:#cccccc;fill-opacity:1.0;fill-rule: evenodd"/>
<path id="Pocket_f0169"  d="M 1.4206674438196394 -35.36989205479599 Q 1.3384293748518834 -35.93595122362775 0.77017382898027 -36.00130959870087 L 0.77017382898027 -36.00130959870087 Q 1.3384293748518834 -35.935951223627754 1.4206674438196396 -35.36989205479599 L 1.4206674438196396 -35.36989205479599 Z " stroke="#191919" stroke-width="0.35 px" style="stroke-width:0.35;stroke-miterlimit:4;stroke-dasharray:none;stroke-linecap:square;fill:#cccccc;fill-opacity:1.0;fill-rule: evenodd"/>
<path id="Pocket_f0170"  d="M -6.216028236773534 -34.848365139752026 Q -6.418029614098597 -35.383511405893174 -6.987049779754016 -35.32518359362902 L -6.987049779754016 -35.32518359362902 Q -6.418029614098597 -35.383511405893174 -6.216028236773533 -34.84836513975202 L -6.216028236773533 -34.84836513975202 Z " stroke="#191919" stroke-width="0.35 px" style="stroke-width:0.35;stroke-miterlimit:4;stroke-dasharray:none;stroke-linecap:square;fill:#cccccc;fill-opacity:1.0;fill-rule: evenodd"/>
<path id="Pocket_f0171"  d="M 0.770173828980276 -36.00130959870087 L -0.7701738289802567 -36.0013095987009 L -0.770173828980257 -36.00130959870089 L 0.77017382898027 -36.00130959870087 L 0.77017382898027 -36.00130959870087 Z " stroke="#191919" stroke-width="0.35 px" style="stroke-width:0.35;stroke-miterlimit:4;stroke-dasharray:none;stroke-linecap:square;fill:#cccccc;fill-opacity:1.0;fill-rule: evenodd"/>
<path id="Pocket_f0172"  d="M -5.793891862308672 -33.849933884232556 L -6.216028236773533 -34.84836513975202 L -6.216028236773533 -34.84836513975202 L -5.793891862308672 -33.849933884232556 L -5.793891862308672 -33.849933884232556 Z " stroke="#191919" stroke-width="0.35 px" style="stroke-width:0.35;stroke-miterlimit:4;stroke-dasharray:none;stroke-linecap:square;fill:#cccccc;fill-opacity:1.0;fill-rule: evenodd"/>
<path id="Pocket_f0173"  d="M -0.7701738289802574 -36.001309598700885 Q -1.3384293748518687 -35.93595122362773 -1.4206674438196307 -35.36989205479598 L -1.420667443819631 -35.36989205479598 Q -1.3384293748518683 -35.93595122362773 -0.7701738289802567 -36.001309598700885 L -0.7701738289802567 -36.00130959870089 Z " stroke="#191919" stroke-width="0.35 px" style="stroke-width:0.35;stroke-miterlimit:4;stroke-dasharray:none;stroke-linecap:square;fill:#cccccc;fill-opacity:1.0;fill-rule: evenodd"/>
<path id="Pocket_f0174"  d="M -1.6183012979154883 -34.30405672494445 Q -1.9549263883756072 -33.09712541354032 -3.5594453247240674 -32.72855927944907 Q -5.2056823240805326 -32.74358440006746 -5.7938918623086675 -33.84993388423256 L -5.793891862308672 -33.849933884232556 Q -5.205682324080531 -32.743584400067434 -3.5594453247240674 -32.728559279449065 Q -1.9549263883756076 -33.09712541354034 -1.6183012979154867 -34.30405672494445 L -1.6183012979154867 -34.30405672494445 Z " stroke="#191919" stroke-width="0.35 px" style="stroke-width:0.35;stroke-miterlimit:4;stroke-dasharray:none;stroke-linecap:square;fill:#cccccc;fill-opacity:1.0;fill-rule: evenodd"/>
<path id="Pocket_f0175"  d="M -1.4206674438196307 -35.36989205479598 L -1.6183012979154867 -34.30405672494446 L -1.618301297915487 -34.30405672494445 L -1.4206674438196307 -35.36989205479598 L -1.4206674438196307 -35.36989205479598 Z " stroke="#191919" stroke-width="0.35 px" style="stroke-width:0.35;stroke-miterlimit:4;stroke-dasharray:none;stroke-linecap:square;fill:#cccccc;fill-opacity:1.0;fill-rule: evenodd"/>
<circle cx="0.0" cy="0.0" r="25.0" stroke="#191919" stroke-width="0.35 px" style="stroke-width:0.35;stroke-miterlimit:4;stroke-dasharray:none;stroke-linecap:square;fill:#cccccc"/>
<title>b'Pocket'</title>
</g>
</svg>