<?xml version="1.0"?>
<!DOCTYPE svg PUBLIC "-//W3C//DTD SVG 1.1//EN" "http://www.w3.org/Graphics/SVG/1.1/DTD/svg11.dtd">
<svg width="104.77957766031626mm" height="54.054501522751295mm" viewBox="0 0 104.77957766031626 54.054501522751295" xmlns="http://www.w3.org/2000/svg" version="1.1">
<g id="Sketch" transform="translate(84.027251,9.027251) scale(1,-1)">
<circle cx="-20.0" cy="0.0" r="3.1" stroke="#000000" stroke-width="0.35 px" style="stroke-width:0.35;stroke-miterlimit:4;stroke-dasharray:none;stroke-linecap:square;fill:none"/>
<path id="Sketch_w0001"  d="M -6.0 0.0 L -6.0 8.000000000000002 L -83.0 8.000000000000002 L -83.0 -6.0 L -60.0 -6.0 L -60.0 -12.0 L -63.22137923662768 -13.502153807860998 L -61.67854785222099 -16.810766388900504 L -58.95962449111103 -15.542911603678402 L -56.84653318240753 -20.07445053886165 L -59.565456543517485 -21.34230532408375 L -54.4940374026291 -32.21799876852355 L -51.77511404151915 -30.950143983301455 L -49.66202273281565 -35.4816829184847 L -52.3809460939256 -36.7495377037068 L -49.0 -44.0 L -45.0 -44.0 L -45.0 -41.0 L -40.0 -41.0 L -40.0 -44.0 L -30.0 -44.0 L -30.0 -41.0 L -10.000000000000004 -41.0 L -10.000000000000004 -44.0 L -4e-15 -43.99999999999999 L -3.55e-15 -41.0 L 4.999999999999997 -41.0 L 4.999999999999997 -43.99999999999999 L 8.999999999999996 -44.0 L 12.380946093925592 -36.7495377037068 L 9.662022732815643 -35.4816829184847 L 11.77511404151914 -30.95014398330145 L 14.49403740262909 -32.21799876852355 L 16.60712871133258 -27.6864598333403 L 13.888205350222632 -26.418605048118202 L 16.00129665892613 -21.887066112934953 L 18.720220020036084 -23.154920898157055 L 19.72507613756496 -21.0 L 0.0 -12.0 L -10.0 -12.0 L -10.0 -6.0 L 0.0 -6.0 L 0.0 0.0 L -6.0 0.0 " stroke="#000000" stroke-width="0.35 px" style="stroke-width:0.35;stroke-miterlimit:4;stroke-dasharray:none;stroke-linecap:square;fill:none;fill-opacity:1;fill-rule: evenodd"/>
<path id="Sketch_w0002"  d="M -55.0 -12.0 L -30.0 -12.0 L -30.0 -6.0 L -55.0 -6.0 L -55.0 -12.0 " stroke="#000000" stroke-width="0.35 px" style="stroke-width:0.35;stroke-miterlimit:4;stroke-dasharray:none;stroke-linecap:square;fill:none;fill-opacity:1;fill-rule: evenodd"/>
<title>b'Sketch'</title>
</g>
</svg>