<?xml version="1.0"?>
<!DOCTYPE svg PUBLIC "-//W3C//DTD SVG 1.1//EN" "http://www.w3.org/Graphics/SVG/1.1/DTD/svg11.dtd">
<svg width="200.94mm" height="75.94mm" viewBox="0 0 200.94 75.94" xmlns="http://www.w3.org/2000/svg" version="1.1">
<g id="Sketch" transform="translate(170.970000,37.970000) scale(1,-1)">
<path id="Sketch_w0000"  d="M -10.0 26.0 L 0.0 26.0 L 0.0 13.0 L 21.85783712766503 7.781287888715425 A 8 8 0 0 0 21.8578 -7.78129L 0.0 -13.0 L 0.0 -26.0 L -10.0 -26.0 L -10.0 -20.0 L -30.0 -20.0 L -30.0 -26.0 L -55.0 -26.0 L -55.0 -20.0 L -60.0 -20.0 L -60.0 -26.0 L -63.0 -26.0 L -63.0 -36.0 L -83.0 -36.0 L -83.0 -10.0 L -95.0 -10.0 L -95.0 -4.0 L -100.0 -4.0 L -100.0 -10.0 L -113.0 -10.0 L -113.0 -4.0 L -118.0 -4.0 L -118.0 -10.0 L -130.0 -10.0 L -130.0 -17.0 L -135.0 -17.0 L -135.0 -11.0 L -145.0 -11.0 L -145.0 -17.0 L -155.0 -17.0 L -155.0 -6.0 L -165.75666785001823 -3.92777975003039 A 4 4 0 0 0 -165.757 3.92778L -155.0 6.0 L -155.0 17.0 L -145.0 17.0 L -145.0 11.0 L -135.0 11.0 L -135.0 17.0 L -130.0 17.0 L -130.0 10.0 L -118.0 10.0 L -118.0 4.0 L -113.0 4.0 L -113.0 10.0 L -100.0 10.0 L -100.0 4.0 L -95.0 4.0 L -95.0 10.0 L -83.0 10.0 L -83.0 36.0 L -63.0 36.0 L -63.0 26.0 L -60.0 26.0 L -60.0 20.0 L -55.0 20.0 L -55.0 26.0 L -30.0 26.0 L -30.0 20.0 L -10.0 20.0 L -10.0 26.0 " stroke="#000000" stroke-width="0.35 px" style="stroke-width:0.35;stroke-miterlimit:4;stroke-dasharray:none;stroke-linecap:square;fill:none;fill-opacity:1;fill-rule: evenodd"/>
<circle cx="-165.0" cy="8e-16" r="2.5" stroke="#000000" stroke-width="0.35 px" style="stroke-width:0.35;stroke-miterlimit:4;stroke-dasharray:none;stroke-linecap:square;fill:none"/>
<path id="Sketch_w0002"  d="M -153.0 10.0 L -148.0 10.0 L -148.0 4.0 L -153.0 4.0 L -153.0 10.0 " stroke="#000000" stroke-width="0.35 px" style="stroke-width:0.35;stroke-miterlimit:4;stroke-dasharray:none;stroke-linecap:square;fill:none;fill-opacity:1;fill-rule: evenodd"/>
<path id="Sketch_w0003"  d="M -78.0 10.0 L -73.0 10.0 L -73.0 4.0 L -78.0 4.0 L -78.0 10.0 " stroke="#000000" stroke-width="0.35 px" style="stroke-width:0.35;stroke-miterlimit:4;stroke-dasharray:none;stroke-linecap:square;fill:none;fill-opacity:1;fill-rule: evenodd"/>
<path id="Sketch_w0004"  d="M -153.0 -4.0 L -148.0 -4.0 L -148.0 -10.0 L -153.0 -10.0 L -153.0 -4.0 " stroke="#000000" stroke-width="0.35 px" style="stroke-width:0.35;stroke-miterlimit:4;stroke-dasharray:none;stroke-linecap:square;fill:none;fill-opacity:1;fill-rule: evenodd"/>
<path id="Sketch_w0005"  d="M -78.0 -4.0 L -73.0 -4.0 L -73.0 -10.0 L -78.0 -10.0 L -78.0 -4.0 " stroke="#000000" stroke-width="0.35 px" style="stroke-width:0.35;stroke-miterlimit:4;stroke-dasharray:none;stroke-linecap:square;fill:none;fill-opacity:1;fill-rule: evenodd"/>
<path id="Sketch_w0006"  d="M -6.0 5.0 L -6.0 -5.0 L 0.0 -5.0 L 0.0 5.0 L -6.0 5.0 " stroke="#000000" stroke-width="0.35 px" style="stroke-width:0.35;stroke-miterlimit:4;stroke-dasharray:none;stroke-linecap:square;fill:none;fill-opacity:1;fill-rule: evenodd"/>
<path id="Sketch_w0007"  d="M -60.0 -4.0 L -55.0 -4.0 L -55.0 -10.0 L -60.0 -10.0 L -60.0 -4.0 " stroke="#000000" stroke-width="0.35 px" style="stroke-width:0.35;stroke-miterlimit:4;stroke-dasharray:none;stroke-linecap:square;fill:none;fill-opacity:1;fill-rule: evenodd"/>
<path id="Sketch_w0008"  d="M -140.0 -4.0 L -135.0 -4.0 L -135.0 -10.0 L -140.0 -10.0 L -140.0 -4.0 " stroke="#000000" stroke-width="0.35 px" style="stroke-width:0.35;stroke-miterlimit:4;stroke-dasharray:none;stroke-linecap:square;fill:none;fill-opacity:1;fill-rule: evenodd"/>
<path id="Sketch_w0009"  d="M -60.0 10.0 L -55.0 10.0 L -55.0 4.0 L -60.0 4.0 L -60.0 10.0 " stroke="#000000" stroke-width="0.35 px" style="stroke-width:0.35;stroke-miterlimit:4;stroke-dasharray:none;stroke-linecap:square;fill:none;fill-opacity:1;fill-rule: evenodd"/>
<path id="Sketch_w0010"  d="M -140.0 10.0 L -135.0 10.0 L -135.0 4.0 L -140.0 4.0 L -140.0 10.0 " stroke="#000000" stroke-width="0.35 px" style="stroke-width:0.35;stroke-miterlimit:4;stroke-dasharray:none;stroke-linecap:square;fill:none;fill-opacity:1;fill-rule: evenodd"/>
<circle cx="20.0" cy="-1e-16" r="2.5" stroke="#000000" stroke-width="0.35 px" style="stroke-width:0.35;stroke-miterlimit:4;stroke-dasharray:none;stroke-linecap:square;fill:none"/>
<path id="Sketch_w0012"  d="M -35.0 15.0 L -20.0 15.0 L -20.0 12.0 L -35.0 12.0 L -35.0 15.0 " stroke="#000000" stroke-width="0.35 px" style="stroke-width:0.35;stroke-miterlimit:4;stroke-dasharray:none;stroke-linecap:square;fill:none;fill-opacity:1;fill-rule: evenodd"/>
<path id="Sketch_w0013"  d="M -35.0 -12.0 L -20.0 -12.0 L -20.0 -15.0 L -35.0 -15.0 L -35.0 -12.0 " stroke="#000000" stroke-width="0.35 px" style="stroke-width:0.35;stroke-miterlimit:4;stroke-dasharray:none;stroke-linecap:square;fill:none;fill-opacity:1;fill-rule: evenodd"/>
<title>b'Sketch'</title>
</g>
</svg>