<?xml version="1.0"?>
<!DOCTYPE svg PUBLIC "-//W3C//DTD SVG 1.1//EN" "http://www.w3.org/Graphics/SVG/1.1/DTD/svg11.dtd">
<svg width="82.3902557891457mm" height="42.615495211551874mm" viewBox="0 0 82.3902557891457 42.615495211551874" xmlns="http://www.w3.org/2000/svg" version="1.1">
<g id="Sketch" transform="translate(19.585630,41.807748) scale(1,-1)">
<path id="Sketch_w0000"  d="M 41.996877863389855 35.0 L 51.996877863389855 35.0 L 51.996877863389855 41.0 L 61.996877863389855 41.0 L 54.99916333689822 26.0 L 8.0 26.0 L 15.0 6.0 L 10.0 6.0 L 10.0 0.0 L 0.0 0.0 L 0.0 6.0 L -10.0 6.0 L -10.991051274184318 8.831575069098053 L -13.822626343282371 7.840523794913734 L -14.81367761746669 10.672098864011787 L -11.982102548368637 11.663150138196105 L -14.95525637092159 20.15787534549026 L -17.786831440019643 19.166824071305943 L -18.77788271420396 21.998399140403993 L -15.94630764510591 22.989450414588312 L -17.0 26.0 L -15.731683770986727 28.718708138660997 L -18.450391909647724 29.987024367674273 L -17.18207568063445 32.70573250633527 L -14.463367541973469 31.43741627732201 L -12.539754594636664 35.56079028762452 L -15.258462733297623 36.82910651663778 L -13.990146504284358 39.54781465529878 L -11.271438365623379 38.279498426285514 L -10.003122136610147 40.99820656494653 L -0.003122136610148 41.0 L -0.003122136610148 35.0 L 9.996877863389853 35.0 L 9.996877863389853 41.0 L 41.996877863389855 41.0 L 41.996877863389855 35.0 " stroke="#000000" stroke-width="0.35 px" style="stroke-width:0.35;stroke-miterlimit:4;stroke-dasharray:none;stroke-linecap:square;fill:none;fill-opacity:1;fill-rule: evenodd"/>
<path id="Sketch_w0001"  d="M -9.299999999999997 26.0 L 5.700000000000003 26.0 L 5.700000000000002 24.0 L -9.299999999999997 24.0 L -9.299999999999997 26.0 " stroke="#000000" stroke-width="0.35 px" style="stroke-width:0.35;stroke-miterlimit:4;stroke-dasharray:none;stroke-linecap:square;fill:none;fill-opacity:1;fill-rule: evenodd"/>
<path id="Sketch_w0002"  d="M -7.55 21.0 L 7.45 21.0 L 7.45 19.0 L -7.55 19.0 L -7.55 21.0 " stroke="#000000" stroke-width="0.35 px" style="stroke-width:0.35;stroke-miterlimit:4;stroke-dasharray:none;stroke-linecap:square;fill:none;fill-opacity:1;fill-rule: evenodd"/>
<path id="Sketch_w0003"  d="M -5.799999999999999 16.0 L 9.200000000000001 16.0 L 9.200000000000001 14.0 L -5.799999999999999 14.0 L -5.799999999999999 16.0 " stroke="#000000" stroke-width="0.35 px" style="stroke-width:0.35;stroke-miterlimit:4;stroke-dasharray:none;stroke-linecap:square;fill:none;fill-opacity:1;fill-rule: evenodd"/>
<path id="Sketch_w0004"  d="M -4.049999999999999 11.0 L 10.950000000000001 11.0 L 10.950000000000001 9.0 L -4.049999999999999 9.0 L -4.049999999999999 11.0 " stroke="#000000" stroke-width="0.35 px" style="stroke-width:0.35;stroke-miterlimit:4;stroke-dasharray:none;stroke-linecap:square;fill:none;fill-opacity:1;fill-rule: evenodd"/>
<circle cx="-9.0" cy="16.0" r="1.5" stroke="#000000" stroke-width="0.35 px" style="stroke-width:0.35;stroke-miterlimit:4;stroke-dasharray:none;stroke-linecap:square;fill:none"/>
<title>b'Sketch'</title>
</g>
</svg>