<?xml version="1.0"?>
<!DOCTYPE svg PUBLIC "-//W3C//DTD SVG 1.1//EN" "http://www.w3.org/Graphics/SVG/1.1/DTD/svg11.dtd">
<svg width="96.04661683949367mm" height="48.32022825819916mm" viewBox="0 0 96.04661683949367 48.32022825819916" xmlns="http://www.w3.org/2000/svg" version="1.1">
<g id="Sketch" transform="translate(0.941633,0.941633) scale(1,-1)">
<path id="Sketch_w0000"  d="M 35.0 -6.0 L 5.0 -6.0 L 5.0 0.0 L 0.0 0.0 L 0.0 -35.0 L 10.0 -35.0 L 10.0 -29.0 L 15.0 -29.0 L 15.0 -35.0 L 50.0 -35.0 L 50.0 -29.0 L 55.0 -29.0 L 55.0 -35.0 L 70.00475964420448 -35.0 L 70.00475964420448 -41.0 L 72.54236722671081 -46.43696126134635 L 80.57094668929135 -42.68976073118039 L 78.03333910678302 -37.25279946983753 L 87.09494120901692 -33.02345349899252 L 89.63254879152383 -38.460414760332654 L 94.16334984264084 -36.345741774910174 L 80.0 -6.0 L 80.0 0.0 L 75.0 0.0 L 75.0 -6.0 L 40.0 -6.0 L 40.0 0.0 L 35.0 0.0 L 35.0 -6.0 " stroke="#000000" stroke-width="0.35 px" style="stroke-width:0.35;stroke-miterlimit:4;stroke-dasharray:none;stroke-linecap:square;fill:none;fill-opacity:1;fill-rule: evenodd"/>
<title>b'Sketch'</title>
</g>
</svg>