<?xml version="1.0"?>
<!DOCTYPE svg PUBLIC "-//W3C//DTD SVG 1.1//EN" "http://www.w3.org/Graphics/SVG/1.1/DTD/svg11.dtd">
<svg width="34.68000000000001mm" height="21.82mm" viewBox="0 0 34.68000000000001 21.82" xmlns="http://www.w3.org/2000/svg" version="1.1">
<g id="Sketch" transform="translate(34.340000,21.480000) scale(1,-1)">
<path id="Sketch_w0000"  d="M -34.0 18.0 L -34.0 21.14 L -24.0 21.14 L -24.0 18.0 L -9.999999999998112 18.0 L -9.999999999998112 21.14 L 0.0 21.14 L 0.0 18.0 L -6.0 18.0 L -6.0 15.0 L 0.0 15.0 L 0.0 6.0 L -6.0 6.0 L -6.0 3.0 L 0.0 3.0 L 0.0 0.0 L -10.0 0.0 L -10.0 3.0 L -24.0 3.0 L -24.0 0.0 L -34.0 0.0 L -34.0 3.0 L -28.0 3.0 L -28.0 6.0 L -34.0 6.0 L -34.0 15.0 L -28.0 15.0 L -28.0 18.0 L -34.0 18.0 " stroke="#000000" stroke-width="0.35 px" style="stroke-width:0.35;stroke-miterlimit:4;stroke-dasharray:none;stroke-linecap:square;fill:none;fill-opacity:1;fill-rule: evenodd"/>
<path id="Sketch_w0001"  d="M -24.0 9.0 L -9.999999999971886 9.0 L -9.999999999971886 6.0 L -24.0 6.0 L -24.0 9.0 " stroke="#000000" stroke-width="0.35 px" style="stroke-width:0.35;stroke-miterlimit:4;stroke-dasharray:none;stroke-linecap:square;fill:none;fill-opacity:1;fill-rule: evenodd"/>
<path id="Sketch_w0002"  d="M -24.0 15.0 L -9.999999999998112 15.0 L -9.999999999998112 12.0 L -24.0 12.0 L -24.0 15.0 " stroke="#000000" stroke-width="0.35 px" style="stroke-width:0.35;stroke-miterlimit:4;stroke-dasharray:none;stroke-linecap:square;fill:none;fill-opacity:1;fill-rule: evenodd"/>
<title>b'Sketch'</title>
</g>
</svg>